<svg xmlns="http://www.w3.org/2000/svg" viewBox="0 0 978 1536">
  <rect width="100%" height="100%" fill="#FFFFFF"/>
  <g id="anterior-muscle-heatmap">
    <g id="body-base">
      <path id="body-outline" fill="#C9C9C9" d="M486 73 C479.91 73.28 472.1 75.16 467 77 C461.9 78.84 454.53 82.46 450 86 C445.47 89.54 438.26 97.04 435 102 C431.74 106.96 428.27 112.36 427 121 C425.73 129.64 427.42 156.06 426 163 C424.58 169.94 418.27 167.03 417 170 C415.73 172.97 416.01 178.9 417 184 C417.99 189.1 421.45 201.47 424 206 C426.55 210.53 433.02 212.18 435 216 C436.98 219.82 436.44 229.03 438 233 C439.56 236.97 445.57 241.31 446 244 C446.43 246.69 441.71 247.47 441 252 C440.29 256.53 443.69 270.76 441 276 C438.31 281.24 434.61 282.62 422 289 C409.39 295.38 363.33 316.47 352 321 C340.67 325.53 346.11 319.73 342 321 C337.89 322.27 329.8 324.76 323 330 C316.2 335.24 299.95 347.66 294 358 C288.05 368.34 283.12 392.8 281 403 C278.88 413.2 278.72 425.18 279 430 C279.28 434.82 282.43 432.18 283 437 C283.57 441.82 283.85 456.77 283 464 C282.15 471.23 278.42 476.81 277 488 C275.58 499.19 276.26 528.41 273 543 C269.74 557.59 258.25 578.67 254 591 C249.75 603.33 245.41 614.42 243 630 C240.59 645.58 239.27 683.01 237 701 C234.73 718.99 229.27 746.66 227 757 C224.73 767.34 225.39 768.05 221 774 C216.61 779.95 202.38 789.37 196 799 C189.62 808.63 177.7 835.62 176 842 C174.3 848.38 181.03 844.85 184 844 C186.97 843.15 194.73 836.85 197 836 C199.27 835.15 200.71 829.64 200 838 C199.29 846.36 192.43 886.22 192 895 C191.57 903.78 194.73 899.58 197 900 C199.27 900.42 205.73 896.3 208 898 C210.27 899.7 211.3 910.02 213 912 C214.7 913.98 218.02 912.99 220 912 C221.98 911.01 225.02 905.28 227 905 C228.98 904.72 232.3 909.43 234 910 C235.7 910.57 237.02 911.83 239 909 C240.98 906.17 246.02 892.12 248 890 C249.98 887.88 251.3 893.58 253 894 C254.7 894.42 257.17 902.35 260 893 C262.83 883.65 271.16 844.01 273 828 C274.84 811.99 271.44 791.05 273 780 C274.56 768.95 275.78 767.42 284 750 C292.22 732.58 323.21 675.27 331 657 C338.79 638.73 337.44 632.05 339 621 C340.56 609.95 339.59 590.9 342 579 C344.41 567.1 353.02 543.38 356 537 C358.98 530.62 360.73 529.33 363 534 C365.27 538.67 370.3 559.66 372 570 C373.7 580.34 375.57 595.67 375 607 C374.43 618.33 368.99 638.81 368 650 C367.01 661.19 371.26 664.33 368 686 C364.74 707.67 348.82 775.52 345 803 C341.18 830.48 341.28 862.58 341 880 C340.72 897.42 340.88 910.27 343 926 C345.12 941.73 352.6 976.69 356 991 C359.4 1005.31 364.88 1017.08 367 1027 C369.12 1036.92 370.43 1049.67 371 1061 C371.57 1072.33 372.42 1091.98 371 1107 C369.58 1122.02 362.42 1153.54 361 1167 C359.58 1180.46 358.73 1184.29 361 1202 C363.27 1219.71 372.47 1270.18 377 1292 C381.53 1313.82 390.59 1344.24 393 1356 C395.41 1367.76 394.43 1368.34 394 1375 C393.57 1381.66 395.1 1394.08 390 1403 C384.9 1411.92 362.82 1431.48 358 1438 C353.18 1444.52 355.43 1446.73 356 1449 C356.57 1451.27 357.75 1452.44 362 1454 C366.25 1455.56 376.65 1458.87 386 1460 C395.35 1461.13 420.49 1462.99 428 1462 C435.51 1461.01 436.88 1456.12 439 1453 C441.12 1449.88 441.16 1443.4 443 1440 C444.84 1436.6 451.86 1444.58 452 1429 C452.14 1413.42 444 1353.09 444 1330 C444 1306.91 449.31 1281.44 452 1266 C454.69 1250.56 461.3 1231.91 463 1221 C464.7 1210.09 464.85 1199.2 464 1189 C463.15 1178.8 458.13 1159.2 457 1149 C455.87 1138.8 454.44 1128.9 456 1117 C457.56 1105.1 465.59 1085.4 468 1065 C470.41 1044.6 470.73 995.24 473 973 C475.27 950.76 481.88 926.56 484 908 C486.12 889.44 486.73 852.06 488 842 C489.27 831.94 491.87 837.42 493 837 C494.13 836.58 495.15 830.5 496 839 C496.85 847.5 496.59 875.61 499 897 C501.41 918.39 510.45 965.35 513 990 C515.55 1014.65 514.73 1051.59 517 1071 C519.27 1090.41 528.29 1112.12 529 1127 C529.71 1141.88 523.13 1163.25 522 1176 C520.87 1188.75 519.44 1203.68 521 1217 C522.56 1230.32 530.17 1252.58 533 1270 C535.83 1287.42 540.86 1324.98 541 1340 C541.14 1355.02 534.71 1366.37 534 1376 C533.29 1385.63 536.28 1400.49 536 1408 C535.72 1415.51 529.88 1421.78 532 1429 C534.12 1436.22 545.76 1454.18 551 1459 C556.24 1463.82 558.8 1463.71 569 1463 C579.2 1462.29 614.64 1455.98 623 1454 C631.36 1452.02 627.58 1451.27 628 1449 C628.42 1446.73 630.82 1444.52 626 1438 C621.18 1431.48 599.1 1413.62 594 1403 C588.9 1392.38 586.03 1390.06 590 1363 C593.97 1335.94 617.47 1241.04 622 1212 C626.53 1182.96 623.27 1174.15 622 1158 C620.73 1141.85 614.13 1112.88 613 1098 C611.87 1083.12 613.01 1064.9 614 1053 C614.99 1041.1 617.02 1027.32 620 1014 C622.98 1000.68 631.88 976.57 635 959 C638.12 941.43 641.58 914.65 642 890 C642.42 865.35 638.99 800.16 638 785 C637.01 769.84 638.4 799.01 635 783 C631.6 766.99 616.69 691.12 614 672 C611.31 652.88 616.71 656.78 616 648 C615.29 639.22 609.85 619.49 609 610 C608.15 600.51 608.16 592.05 610 581 C611.84 569.95 619.59 538.8 622 532 C624.41 525.2 626.15 531.02 627 533 C627.85 534.98 626.02 539.91 628 546 C629.98 552.09 638.59 566.08 641 576 C643.41 585.92 643.02 604.1 645 616 C646.98 627.9 648.2 643.28 655 660 C661.8 676.72 685.07 717.14 693 734 C700.93 750.86 708.45 766.39 711 779 C713.55 791.61 709.3 806.99 711 823 C712.7 839.01 720.31 881.8 723 892 C725.69 902.2 728.16 895.42 730 895 C731.84 894.58 733.88 887.02 736 889 C738.12 890.98 743.02 906.02 745 909 C746.98 911.98 748.3 910.85 750 910 C751.7 909.15 755.16 902.86 757 903 C758.84 903.14 761.16 909.73 763 911 C764.84 912.27 768.44 912.57 770 912 C771.56 911.43 773.29 909.27 774 907 C774.71 904.73 773.73 896.99 775 896 C776.27 895.01 780.73 899.86 783 900 C785.27 900.14 790.01 901.25 791 897 C791.99 892.75 791.13 878.5 790 870 C788.87 861.5 783.57 841.96 783 837 C782.43 832.04 783.88 834.01 786 835 C788.12 835.99 795.31 842.73 798 844 C800.69 845.27 803.44 844.57 805 844 C806.56 843.43 811.69 846.66 809 840 C806.31 833.34 793.23 807.62 786 797 C778.77 786.38 763.67 778.74 758 765 C752.33 751.26 748.55 719.41 746 700 C743.45 680.59 745.1 651.09 740 628 C734.9 604.91 714.53 555.98 710 537 C705.47 518.02 709.42 504.91 708 494 C706.58 483.09 700.85 473.88 700 460 C699.15 446.12 702.99 409.32 702 396 C701.01 382.68 696.54 373.65 693 366 C689.46 358.35 681.82 347.24 677 342 C672.18 336.76 667.08 332.54 659 329 C650.92 325.46 636.58 324.51 620 317 C603.42 309.49 552.91 284.93 542 276 C531.09 267.07 543.42 258.53 543 254 C542.58 249.47 538.72 246.69 539 244 C539.28 241.31 543.58 238.97 545 235 C546.42 231.03 546.73 220.25 549 216 C551.27 211.75 558.45 210.1 561 205 C563.55 199.9 566.29 185.1 567 180 C567.71 174.9 567.27 171.41 566 169 C564.73 166.59 559.42 170.37 558 163 C556.58 155.63 557.13 125.5 556 117 C554.87 108.5 553.12 107.39 550 103 C546.88 98.61 539.67 89.97 534 86 C528.33 82.03 516.8 76.84 510 75 C503.2 73.16 492.09 72.72 486 73 Z"/>
    </g>
    <g id="yellow-muscles" fill="#FFF176">
      <path id="right-trapezius-yellow" d="M536 252 C534.02 252.28 530.53 247.39 526 260 C521.47 272.61 506.69 328.53 504 341 C501.31 353.47 505.16 347.72 507 348 C508.84 348.28 512.89 350.79 517 343 C521.11 335.21 532.74 302.77 536 293 C539.26 283.23 539.43 278.96 540 274 C540.57 269.04 540.57 261.12 540 258 C539.43 254.88 537.98 251.72 536 252 Z"/>
      <path id="left-trapezius-yellow" d="M447 253 C445.44 256.12 441.31 265.39 444 278 C446.69 290.61 461.18 331.94 466 342 C470.82 352.06 475.88 348.86 478 349 C480.12 349.14 483.27 354.19 481 343 C478.73 331.81 465.68 282.32 462 270 C458.32 257.68 457.12 258.41 455 256 C452.88 253.59 448.56 249.88 447 253 Z"/>
      <path id="left-upper-trapezius-yellow" d="M440 290 C439.86 285.32 436.69 285.29 434 286 C431.31 286.71 429.5 290.61 421 295 C412.5 299.39 380.8 313.18 374 317 C367.2 320.82 370.17 319.88 373 322 C375.83 324.12 387.34 329.88 394 332 C400.66 334.12 414.19 338.84 420 337 C425.81 335.16 432.17 325.66 435 319 C437.83 312.34 440.14 294.68 440 290 Z"/>
      <path id="right-upper-trapezius-yellow" d="M544 288 C543.29 290.55 543.43 299.61 544 304 C544.57 308.39 546.58 315.46 548 319 C549.42 322.54 552.02 326.73 554 329 C555.98 331.27 559.02 334.01 562 335 C564.98 335.99 568.34 337.42 575 336 C581.66 334.58 604.47 327.83 609 325 C613.53 322.17 615.5 321.52 607 316 C598.5 310.48 557.92 289.97 549 286 C540.08 282.03 544.71 285.45 544 288 Z"/>
      <path id="left-forearm-yellow-outer" d="M273 566 C271.58 565.43 272.41 562.18 270 567 C267.59 571.82 259.4 589.23 256 600 C252.6 610.77 246.99 634.22 246 643 C245.01 651.78 248.72 653.78 249 662 C249.28 670.22 249.98 687.26 248 701 C246.02 714.74 236.13 750.22 235 759 C233.87 767.78 238.3 763.42 240 763 C241.7 762.58 242.32 765.35 247 756 C251.68 746.65 266.77 713.58 273 697 C279.23 680.42 288.31 650.9 291 639 C293.69 627.1 293.56 622.63 292 613 C290.44 603.37 282.69 577.66 280 571 C277.31 564.34 274.42 566.57 273 566 Z"/>
      <path id="right-forearm-yellow-outer" d="M708 568 C705.59 569.27 702.12 575.33 700 581 C697.88 586.67 693.85 599.22 693 608 C692.15 616.78 692.73 633.79 694 643 C695.27 652.21 695.62 656.57 702 673 C708.38 689.43 732.91 746.39 739 759 C745.09 771.61 743.58 762.14 745 762 C746.42 761.86 748.58 760.27 749 758 C749.42 755.73 749.7 753.23 748 746 C746.3 738.77 738.84 715.5 737 707 C735.16 698.5 735 695.92 735 686 C735 676.08 739.55 653.15 737 637 C734.45 620.85 721.11 581.77 717 572 C712.89 562.23 710.41 566.73 708 568 Z"/>
      <path id="left-forearm-yellow-inner" d="M330 603 C326.46 603.99 314.82 610.03 310 614 C305.18 617.97 300.39 620.52 296 631 C291.61 641.48 285.8 670.01 279 688 C272.2 705.99 252.39 747.38 248 758 C243.61 768.62 247.43 762.01 248 763 C248.57 763.99 250.44 765.14 252 765 C253.56 764.86 253.19 770.5 259 762 C264.81 753.5 284.36 717.89 293 705 C301.64 692.11 315.04 678.79 320 671 C324.96 663.21 325.88 659.07 328 650 C330.12 640.93 334.72 613.66 335 607 C335.28 600.34 333.54 602.01 330 603 Z"/>
      <path id="right-forearm-yellow-inner" d="M654 603 C651.59 602.72 649.71 604.44 649 606 C648.29 607.56 647.44 606.07 649 614 C650.56 621.93 652.77 647.27 660 662 C667.23 676.73 690.79 703.83 700 718 C709.21 732.17 720.61 755.34 725 762 C729.39 768.66 729.58 765 731 765 C732.42 765 734.58 763.42 735 762 C735.42 760.58 738.67 766.48 734 755 C729.33 743.52 708.38 698.28 702 681 C695.62 663.72 692.4 641.92 689 633 C685.6 624.08 681.26 621.54 678 618 C674.74 614.46 669.4 610.12 666 608 C662.6 605.88 656.41 603.28 654 603 Z"/>
      <path id="right-hip-flexor-yellow-side" d="M608 699 C612 701 616 710 620 723 C624 736 629 754 632 770 C635 786 637 804 637 822 C637 840 636 857 634 872 C633 879 631 882 628 878 C625 873 622 860 617 846 C612 832 606 817 601 803 C596 789 593 775 592 761 C591 747 592 730 594 718 C596 706 602 698 608 699 Z"/>
      <path id="left-hip-flexor-yellow-side" d="M376 699 C372 701 368 710 364 723 C360 736 355 754 352 770 C349 786 347 804 347 822 C347 840 348 857 350 872 C351 879 353 882 356 878 C359 873 362 860 367 846 C372 832 378 817 383 803 C388 789 391 775 392 761 C393 747 392 730 390 718 C388 706 382 698 376 699 Z"/>
      <path id="left-inner-thigh-yellow-long" d="M396 723 C394.58 722.15 393.28 722.6 393 726 C392.72 729.4 392.44 735.1 394 747 C395.56 758.9 396.35 784.64 404 810 C411.65 835.36 439.64 900.22 448 926 C456.36 951.78 460.45 990.73 463 992 C465.55 993.27 466.85 950.87 466 935 C465.15 919.13 462.81 899.27 457 880 C451.19 860.73 432.65 819.97 425 799 C417.35 778.03 407.11 742.77 403 732 C398.89 721.23 397.42 723.85 396 723 Z"/>
      <path id="right-inner-thigh-yellow-long" d="M589 723 C587.73 721.58 584.98 721.63 582 729 C579.02 736.37 573.95 758.99 568 775 C562.05 791.01 546.38 825 540 842 C533.62 859 526.12 882.25 523 895 C519.88 907.75 518.28 918.26 518 932 C517.72 945.74 518.45 992.85 521 992 C523.55 991.15 527.78 951.5 536 926 C544.22 900.5 571.21 838.49 579 812 C586.79 785.51 589.58 751.61 591 739 C592.42 726.39 590.27 724.42 589 723 Z"/>
      <path id="right-upper-thigh-yellow" d="M574 734 C578 737 579 744 577 753 C575 762 570 775 564 789 C558 803 550 819 543 833 C539 841 536 845 533 842 C529 839 525 828 522 817 C519 806 518 796 520 789 C522 782 527 776 534 769 C541 762 549 753 557 745 C563 739 570 733 574 734 Z"/>
      <path id="left-upper-thigh-yellow" d="M414 734 C409 737 408 744 410 753 C412 762 417 775 423 789 C429 803 437 819 444 833 C448 841 451 845 454 842 C458 839 462 828 465 817 C468 806 469 796 467 789 C465 782 460 776 453 769 C446 762 438 753 430 745 C424 739 418 733 414 734 Z"/>
      <path id="left-shin-yellow-main" d="M383 1124 C381.73 1124.28 380.13 1124.32 379 1128 C377.87 1131.68 375.43 1137.25 375 1150 C374.57 1162.75 375.01 1204.54 376 1218 C376.99 1231.46 377.47 1229.98 382 1245 C386.53 1260.02 403.75 1309.41 408 1324 C412.25 1338.59 410.44 1344.03 412 1348 C413.56 1351.97 417.44 1351.86 419 1352 C420.56 1352.14 423.71 1357.5 423 1349 C422.29 1340.5 416.12 1313.67 414 1292 C411.88 1270.33 410.98 1218.24 408 1196 C405.02 1173.76 395.83 1144.92 393 1135 C390.17 1125.08 389.42 1127.56 388 1126 C386.58 1124.44 384.27 1123.72 383 1124 Z"/>
      <path id="right-shin-yellow-main" d="M601 1124 C599.44 1122.58 597.98 1122.88 596 1126 C594.02 1129.12 589.83 1136.08 587 1146 C584.17 1155.92 578.41 1175.17 576 1196 C573.59 1216.83 571.98 1273.03 570 1293 C568.02 1312.97 563.13 1329.07 562 1337 C560.87 1344.93 561.29 1346.73 562 1349 C562.71 1351.27 565.73 1352.72 567 1353 C568.27 1353.28 569.58 1355.67 571 1351 C572.42 1346.33 573.03 1333.6 577 1320 C580.97 1306.4 594.47 1269.88 599 1255 C603.53 1240.12 607.44 1228.32 609 1215 C610.56 1201.68 610.28 1172.19 610 1161 C609.72 1149.81 608.27 1141.24 607 1136 C605.73 1130.76 602.56 1125.42 601 1124 Z"/>
      <path id="left-inner-calf-yellow" d="M450 1147 C448.16 1143.6 446.12 1147.17 444 1150 C441.88 1152.83 436.98 1160.91 435 1167 C433.02 1173.09 430.57 1184.64 430 1193 C429.43 1201.36 429.73 1218.35 431 1226 C432.27 1233.65 437.02 1243.17 439 1247 C440.98 1250.83 443.16 1252.58 445 1253 C446.84 1253.42 450.16 1254.82 452 1250 C453.84 1245.18 457.29 1229.77 458 1219 C458.71 1208.23 458.13 1184.2 457 1174 C455.87 1163.8 451.84 1150.4 450 1147 Z"/>
      <path id="right-inner-calf-yellow" d="M534 1147 C532.58 1147.85 531.13 1150.04 530 1155 C528.87 1159.96 526.57 1173.08 526 1182 C525.43 1190.92 525.15 1208.37 526 1218 C526.85 1227.63 530.44 1244.76 532 1250 C533.56 1255.24 535.16 1255.28 537 1255 C538.84 1254.72 542.88 1251.26 545 1248 C547.12 1244.74 550.73 1240.22 552 1232 C553.27 1223.78 554.71 1199.92 554 1190 C553.29 1180.08 548.98 1167.81 547 1162 C545.02 1156.19 541.84 1151.12 540 1149 C538.16 1146.88 535.42 1146.15 534 1147 Z"/>
    </g>
    <g id="orange-muscles" fill="#FFA726">
      <path id="left-deltoid-orange" d="M391 337 C386.47 334.59 367.95 327.42 362 326 C356.05 324.58 354.1 325.58 349 327 C343.9 328.42 331.81 332.6 326 336 C320.19 339.4 312.39 345.9 308 351 C303.61 356.1 297.98 365.06 295 372 C292.02 378.94 288.13 391.78 287 400 C285.87 408.22 286.43 422.21 287 430 C287.57 437.79 288.73 451.32 291 455 C293.27 458.68 296.48 459.97 303 456 C309.52 452.03 328.93 438.62 337 427 C345.07 415.38 351.93 385.9 360 374 C368.07 362.1 389.61 348.24 394 343 C398.39 337.76 395.53 339.41 391 337 Z"/>
      <path id="right-deltoid-orange" d="M596 335 C591.89 337.55 587.32 338.62 591 344 C594.68 349.38 616.19 366.48 622 373 C627.81 379.52 628.6 382.49 632 390 C635.4 397.51 639.91 417.36 646 426 C652.09 434.64 669.33 446.61 675 451 C680.67 455.39 683.45 456.57 686 457 C688.55 457.43 691.44 458.68 693 454 C694.56 449.32 696.72 432.93 697 424 C697.28 415.07 696.42 398.93 695 391 C693.58 383.07 690.12 374.09 687 368 C683.88 361.91 677.11 352.53 673 348 C668.89 343.47 663.24 338.98 658 336 C652.76 333.02 641.38 328.42 636 327 C630.62 325.58 625.67 324.87 620 326 C614.33 327.13 600.11 332.45 596 335 Z"/>
      <path id="right-upper-arm-orange" d="M644 432 C640.74 431.29 640.27 431.32 638 436 C635.73 440.68 629.42 455.65 628 465 C626.58 474.35 627.15 492.08 628 502 C628.85 511.92 631.73 526.78 634 535 C636.27 543.22 641.02 554.48 644 560 C646.98 565.52 651.32 570.17 655 574 C658.68 577.83 666.17 584.73 670 587 C673.83 589.27 679.31 590.28 682 590 C684.69 589.72 686.88 589.39 689 585 C691.12 580.61 695.87 568.49 697 559 C698.13 549.51 697.71 527.77 697 518 C696.29 508.23 694.98 498.93 692 490 C689.02 481.07 680.39 461.94 676 455 C671.61 448.06 665.53 444.26 661 441 C656.47 437.74 647.26 432.71 644 432 Z"/>
      <path id="left-upper-arm-orange" d="M341 433 C338.45 431.87 334.97 432.73 331 435 C327.03 437.27 316.97 445.32 313 449 C309.03 452.68 305.98 455.19 303 461 C300.02 466.81 294.41 480.51 292 490 C289.59 499.49 286.85 519.36 286 528 C285.15 536.64 285.01 543.35 286 551 C286.99 558.65 290.88 576.48 293 582 C295.12 587.52 297.88 589.43 301 590 C304.12 590.57 310.75 588.55 315 586 C319.25 583.45 327.46 575.68 331 572 C334.54 568.32 337.45 564.82 340 560 C342.55 555.18 346.73 546.36 349 538 C351.27 529.64 355.01 511.34 356 501 C356.99 490.66 356.99 473.22 356 465 C355.01 456.78 351.12 447.53 349 443 C346.88 438.47 343.55 434.13 341 433 Z"/>
      <path id="left-oblique-strip-1" d="M392 496 C387 498 384 503 384 509 C384 515 387 521 392 525 C397 529 404 532 411 532 C416 532 419 529 420 524 C421 519 419 512 416 507 C413 502 408 498 402 496 C398 495 394 495 392 496 Z"/>
      <path id="right-oblique-strip-1" d="M592 496 C596 498 600 503 600 509 C600 515 597 521 592 525 C587 529 580 532 573 532 C568 532 565 529 564 524 C563 519 565 512 568 507 C571 502 576 498 582 496 C586 495 590 495 592 496 Z"/>
      <path id="left-oblique-strip-2" d="M386 522 C382 525 380 531 381 537 C382 544 386 551 391 558 C396 565 402 572 409 576 C413 579 417 579 419 576 C421 572 420 563 419 556 C418 549 414 542 409 537 C404 532 397 526 392 523 C390 521 388 521 386 522 Z"/>
      <path id="right-oblique-strip-2" d="M598 522 C602 525 604 531 603 537 C602 544 598 551 593 558 C588 565 582 572 575 576 C571 579 567 579 565 576 C563 572 564 563 565 556 C566 549 570 542 575 537 C580 532 587 526 592 523 C594 521 596 521 598 522 Z"/>
      <path id="left-oblique-strip-3" d="M384 564 C381 567 380 572 381 578 C382 584 386 592 391 599 C396 606 402 612 408 615 C412 617 416 616 417 612 C418 608 418 601 416 595 C414 589 409 584 404 580 C399 576 392 569 388 566 C386 564 385 563 384 564 Z"/>
      <path id="right-oblique-strip-3" d="M600 564 C603 567 604 572 603 578 C602 584 598 592 593 599 C588 606 582 612 576 615 C572 617 568 616 567 612 C566 608 566 601 568 595 C570 589 575 584 580 580 C585 576 592 569 596 566 C598 564 599 563 600 564 Z"/>
      <path id="left-oblique-strip-4" d="M384 603 C380 607 378 616 378 627 C378 638 376 651 376 664 C376 677 379 688 385 696 C391 704 400 710 409 711 C416 712 420 709 422 703 C424 697 423 688 422 676 C421 664 419 651 416 641 C413 631 407 622 401 615 C395 608 388 603 384 603 Z"/>
      <path id="right-oblique-strip-4" d="M600 603 C604 607 606 616 606 627 C606 638 608 651 608 664 C608 677 605 688 599 696 C593 704 584 710 575 711 C568 712 564 709 562 703 C560 697 561 688 562 676 C563 664 565 651 568 641 C571 631 577 622 583 615 C589 608 596 603 600 603 Z"/>
      <path id="left-quad-orange-main" d="M392 768 L392 772 L390 772 L388 776 L384 795 L376 817 L377 822 L374 843 L374 884 L375 895 L377 898 L376 913 L384 963 L394 998 L402 1017 L403 1016 L405 1018 L414 1018 L419 1009 L419 1003 L422 995 L431 943 L431 889 L428 874 L420 857 L403 804 L398 774 L395 772 L396 770 L394 772 Z"/>
      <path id="right-quad-orange-main" d="M593 770 L592 773 L590 772 L588 774 L587 771 L585 776 L582 798 L576 818 L576 829 L574 831 L573 828 L571 839 L566 849 L568 851 L565 852 L562 858 L560 868 L556 876 L553 891 L552 933 L556 966 L564 1006 L571 1019 L580 1019 L587 1007 L603 949 L608 916 L610 891 L610 847 L608 839 L609 829 L606 820 L607 815 L604 809 L604 803 Z"/>
      <path id="right-outer-quad-orange" d="M620 841 C617.88 838.88 614.85 833.66 614 844 C613.15 854.34 615.7 896.01 614 914 C612.3 931.99 605.97 955.42 602 971 C598.03 986.58 588.27 1013.38 586 1024 C583.73 1034.62 585.01 1041.18 586 1046 C586.99 1050.82 590.88 1056.72 593 1058 C595.12 1059.28 597.6 1062.22 601 1055 C604.4 1047.78 612.47 1024.42 617 1007 C621.53 989.58 630.73 949.99 633 932 C635.27 914.01 633.57 890.34 633 880 C632.43 869.66 630.84 864.52 629 859 C627.16 853.48 622.12 843.12 620 841 Z"/>
      <path id="left-outer-quad-orange" d="M368 842 C366.02 830.24 360.98 845.17 359 848 C357.02 850.83 355.42 855.48 354 862 C352.58 868.52 349.57 884.79 349 894 C348.43 903.21 348.44 914.82 350 927 C351.56 939.18 355.32 962.15 360 980 C364.68 997.85 378.75 1041.95 383 1053 C387.25 1064.05 388.02 1058.42 390 1058 C391.98 1057.58 396.01 1055.81 397 1050 C397.99 1044.19 399.55 1029.61 397 1017 C394.45 1004.39 382.4 973.18 379 961 C375.6 948.82 374.56 947.86 373 931 C371.44 914.14 369.98 853.76 368 842 Z"/>
      <path id="left-inner-quad-orange" d="M441 910 C439.44 909.43 437.13 905.77 436 913 C434.87 920.23 435.27 946.55 433 961 C430.73 975.45 421.27 1001.68 420 1015 C418.73 1028.32 422.44 1048.06 424 1055 C425.56 1061.94 428.88 1062.16 431 1064 C433.12 1065.84 436.59 1067.86 439 1068 C441.41 1068.14 445.45 1067.27 448 1065 C450.55 1062.73 454.88 1058.52 457 1052 C459.12 1045.48 462.43 1030.19 463 1019 C463.57 1007.81 462.13 983.91 461 973 C459.87 962.09 456.98 949.93 455 942 C453.02 934.07 448.98 921.53 447 917 C445.02 912.47 442.56 910.57 441 910 Z"/>
      <path id="right-inner-quad-orange" d="M541 911 C538.88 913.12 535.55 918.36 533 927 C530.45 935.64 524.7 958.26 523 972 C521.3 985.74 520.29 1012.24 521 1024 C521.71 1035.76 526.16 1049.47 528 1055 C529.84 1060.53 531.45 1061.16 534 1063 C536.55 1064.84 543.31 1067.72 546 1068 C548.69 1068.28 551.02 1066.84 553 1065 C554.98 1063.16 558.44 1061.52 560 1055 C561.56 1048.48 565.42 1033.03 564 1019 C562.58 1004.98 552.27 971.16 550 956 C547.73 940.84 549.27 918.38 548 912 C546.73 905.62 543.12 908.88 541 911 Z"/>
    </g>
    <g id="red-muscles" fill="#FF2638">
      <path id="left-pectoral-red" d="M402 342 C391.23 342.71 388.25 349.74 384 353 C379.75 356.26 376.39 359.05 372 365 C367.61 370.95 356.68 387.49 353 395 C349.32 402.51 346.99 412.9 346 418 C345.01 423.1 345.15 427.03 346 431 C346.85 434.97 349.31 440.9 352 446 C354.69 451.1 361.18 462.04 365 467 C368.82 471.96 374.89 477.88 379 481 C383.11 484.12 386.63 487.87 394 489 C401.37 490.13 420.94 490.13 431 489 C441.06 487.87 457.92 483.55 465 481 C472.08 478.45 478.02 474.26 481 471 C483.98 467.74 485.01 465.93 486 458 C486.99 450.07 488.28 427.89 488 415 C487.72 402.11 485.84 375.36 484 367 C482.16 358.64 478.4 358.69 475 356 C471.6 353.31 470.34 349.98 460 348 C449.66 346.02 412.77 341.29 402 342 Z"/>
      <path id="right-pectoral-red" d="M582 342 C571.66 341.57 534.62 345.88 524 348 C513.38 350.12 510.26 354.73 507 357 C503.74 359.27 502.56 358.76 501 364 C499.44 369.24 496.57 381.11 496 394 C495.43 406.89 496.01 444.09 497 455 C497.99 465.91 500.02 467.32 503 471 C505.98 474.68 511.06 478.45 518 481 C524.94 483.55 541.94 487.87 552 489 C562.06 490.13 581.35 490.27 589 489 C596.65 487.73 601.33 483.68 606 480 C610.67 476.32 618.46 467.53 622 463 C625.54 458.47 628.73 452.68 631 448 C633.27 443.32 637.01 434.11 638 430 C638.99 425.89 639.27 424.52 638 419 C636.73 413.48 632.4 398.37 629 391 C625.6 383.63 618.53 372.67 614 367 C609.47 361.33 601.53 354.54 597 351 C592.47 347.46 592.34 342.43 582 342 Z"/>
      <path id="upper-ab-red-left" d="M486 488 C482.46 486.87 471.08 484.3 464 486 C456.92 487.7 441.24 495.32 436 500 C430.76 504.68 428.13 513.05 427 519 C425.87 524.95 426.3 538.32 428 542 C429.7 545.68 430.64 547.69 439 545 C447.36 542.31 479.92 530.23 487 523 C494.08 515.77 489.14 498.96 489 494 C488.86 489.04 489.54 489.13 486 488 Z"/>
      <path id="upper-ab-red-right" d="M496 492 C493.31 496.53 493.57 512.33 494 517 C494.43 521.67 491.92 521.17 499 525 C506.08 528.83 536.07 541.45 544 544 C551.93 546.55 553.16 546.4 555 543 C556.84 539.6 558.13 526.09 557 520 C555.87 513.91 550.83 504.25 547 500 C543.17 495.75 534.82 492.12 530 490 C525.18 487.88 517.82 484.72 513 485 C508.18 485.28 498.69 487.47 496 492 Z"/>
      <path id="mid-ab-red-left" d="M486 538 C484.44 533.18 480.27 534.42 478 534 C475.73 533.58 475.81 532.31 470 535 C464.19 537.69 442.95 548.04 437 553 C431.05 557.96 429.27 566.03 428 570 C426.73 573.97 427.01 578.31 428 581 C428.99 583.69 432.02 587.87 435 589 C437.98 590.13 442.2 589.85 449 589 C455.8 588.15 477.48 584.84 483 583 C488.52 581.16 487.15 578.12 488 576 C488.85 573.88 489.28 573.38 489 568 C488.72 562.62 487.56 542.82 486 538 Z"/>
      <path id="mid-ab-red-right" d="M496 542 C493.73 547.81 494.43 569.19 495 575 C495.57 580.81 493.91 581.02 500 583 C506.09 584.98 530.49 588.58 538 589 C545.51 589.42 550.45 587.56 553 586 C555.55 584.44 555.72 580.83 556 578 C556.28 575.17 556.27 569.54 555 566 C553.73 562.46 553.23 557.53 547 553 C540.77 548.47 518.23 535.56 511 534 C503.77 532.44 498.27 536.19 496 542 Z"/>
      <path id="lower-ab-red-left" d="M483 592 C480.17 591.01 473.94 589.43 467 590 C460.06 590.57 439.52 593.59 434 596 C428.48 598.41 428.85 603.03 428 607 C427.15 610.97 427.29 619.33 428 624 C428.71 628.67 430.17 636.88 433 640 C435.83 643.12 442.48 645.15 448 646 C453.52 646.85 466.9 646.85 472 646 C477.1 645.15 481.59 642.98 484 640 C486.41 637.02 488.57 631.09 489 625 C489.43 618.91 487.85 601.67 487 597 C486.15 592.33 485.83 592.99 483 592 Z"/>
      <path id="lower-ab-red-right" d="M497 595 C495.73 599.96 495 619.33 495 625 C495 630.67 495.87 632.45 497 635 C498.13 637.55 500.88 641.44 503 643 C505.12 644.56 506.33 645.72 512 646 C517.67 646.28 537.48 645.99 543 645 C548.52 644.01 549.3 641.27 551 639 C552.7 636.73 554.29 633.25 555 629 C555.71 624.75 556 612.68 556 609 C556 605.32 556.42 604.98 555 603 C553.58 601.02 551.1 596.84 546 595 C540.9 593.16 524.95 590.71 519 590 C513.05 589.29 507.12 589.29 504 590 C500.88 590.71 498.27 590.04 497 595 Z"/>
      <path id="left-lower-center-ab-red" d="M438 650 C432.05 650.42 433.85 652.59 433 655 C432.15 657.41 430.44 657.79 432 667 C433.56 676.21 438.9 703.57 444 720 C449.1 736.43 463.75 773.08 468 783 C472.25 792.92 472.02 788.58 474 790 C475.98 791.42 479.73 793.14 482 793 C484.27 792.86 489.01 806.99 490 789 C490.99 771.01 489.57 684.42 489 666 C488.43 647.58 487.98 660.98 486 659 C484.02 657.02 481.8 653.27 475 652 C468.2 650.73 443.95 649.58 438 650 Z"/>
      <path id="right-lower-center-ab-red" d="M545 650 C538.77 649.58 513.94 650.3 507 652 C500.06 653.7 497.84 642.59 496 662 C494.16 681.41 493.72 770.73 494 789 C494.28 807.27 495.17 791.42 498 791 C500.83 790.58 509.89 790.67 514 786 C518.11 781.33 521.76 774.01 527 758 C532.24 741.99 547.6 687.59 551 673 C554.4 658.41 551.85 658.26 551 655 C550.15 651.74 551.23 650.42 545 650 Z"/>
    </g>
    <g id="separators-white" fill="none" stroke="#FFFFFF" stroke-width="2.2" stroke-linecap="round" stroke-linejoin="round">
      <use href="#right-trapezius-yellow"/>
      <use href="#left-trapezius-yellow"/>
      <use href="#left-upper-trapezius-yellow"/>
      <use href="#right-upper-trapezius-yellow"/>
      <use href="#left-forearm-yellow-outer"/>
      <use href="#right-forearm-yellow-outer"/>
      <use href="#left-forearm-yellow-inner"/>
      <use href="#right-forearm-yellow-inner"/>
      <use href="#right-hip-flexor-yellow-side"/>
      <use href="#left-hip-flexor-yellow-side"/>
      <use href="#left-inner-thigh-yellow-long"/>
      <use href="#right-inner-thigh-yellow-long"/>
      <use href="#right-upper-thigh-yellow"/>
      <use href="#left-upper-thigh-yellow"/>
      <use href="#left-shin-yellow-main"/>
      <use href="#right-shin-yellow-main"/>
      <use href="#left-inner-calf-yellow"/>
      <use href="#right-inner-calf-yellow"/>
      <use href="#left-deltoid-orange"/>
      <use href="#right-deltoid-orange"/>
      <use href="#right-upper-arm-orange"/>
      <use href="#left-upper-arm-orange"/>
      <use href="#left-oblique-strip-1"/>
      <use href="#right-oblique-strip-1"/>
      <use href="#left-oblique-strip-2"/>
      <use href="#right-oblique-strip-2"/>
      <use href="#left-oblique-strip-3"/>
      <use href="#right-oblique-strip-3"/>
      <use href="#left-oblique-strip-4"/>
      <use href="#right-oblique-strip-4"/>
      <use href="#left-quad-orange-main"/>
      <use href="#right-quad-orange-main"/>
      <use href="#right-outer-quad-orange"/>
      <use href="#left-outer-quad-orange"/>
      <use href="#left-inner-quad-orange"/>
      <use href="#right-inner-quad-orange"/>
      <use href="#left-pectoral-red"/>
      <use href="#right-pectoral-red"/>
      <use href="#upper-ab-red-left"/>
      <use href="#upper-ab-red-right"/>
      <use href="#mid-ab-red-left"/>
      <use href="#mid-ab-red-right"/>
      <use href="#lower-ab-red-left"/>
      <use href="#lower-ab-red-right"/>
      <use href="#left-lower-center-ab-red"/>
      <use href="#right-lower-center-ab-red"/>
    </g>
    <g id="final-body-outline" fill="none" stroke="#D8D8D8" stroke-width="2" stroke-linecap="round" stroke-linejoin="round">
      <path id="body-outline-stroke" d="M486 73 C479.91 73.28 472.1 75.16 467 77 C461.9 78.84 454.53 82.46 450 86 C445.47 89.54 438.26 97.04 435 102 C431.74 106.96 428.27 112.36 427 121 C425.73 129.64 427.42 156.06 426 163 C424.58 169.94 418.27 167.03 417 170 C415.73 172.97 416.01 178.9 417 184 C417.99 189.1 421.45 201.47 424 206 C426.55 210.53 433.02 212.18 435 216 C436.98 219.82 436.44 229.03 438 233 C439.56 236.97 445.57 241.31 446 244 C446.43 246.69 441.71 247.47 441 252 C440.29 256.53 443.69 270.76 441 276 C438.31 281.24 434.61 282.62 422 289 C409.39 295.38 363.33 316.47 352 321 C340.67 325.53 346.11 319.73 342 321 C337.89 322.27 329.8 324.76 323 330 C316.2 335.24 299.95 347.66 294 358 C288.05 368.34 283.12 392.8 281 403 C278.88 413.2 278.72 425.18 279 430 C279.28 434.82 282.43 432.18 283 437 C283.57 441.82 283.85 456.77 283 464 C282.15 471.23 278.42 476.81 277 488 C275.58 499.19 276.26 528.41 273 543 C269.74 557.59 258.25 578.67 254 591 C249.75 603.33 245.41 614.42 243 630 C240.59 645.58 239.27 683.01 237 701 C234.73 718.99 229.27 746.66 227 757 C224.73 767.34 225.39 768.05 221 774 C216.61 779.95 202.38 789.37 196 799 C189.62 808.63 177.7 835.62 176 842 C174.3 848.38 181.03 844.85 184 844 C186.97 843.15 194.73 836.85 197 836 C199.27 835.15 200.71 829.64 200 838 C199.29 846.36 192.43 886.22 192 895 C191.57 903.78 194.73 899.58 197 900 C199.27 900.42 205.73 896.3 208 898 C210.27 899.7 211.3 910.02 213 912 C214.7 913.98 218.02 912.99 220 912 C221.98 911.01 225.02 905.28 227 905 C228.98 904.72 232.3 909.43 234 910 C235.7 910.57 237.02 911.83 239 909 C240.98 906.17 246.02 892.12 248 890 C249.98 887.88 251.3 893.58 253 894 C254.7 894.42 257.17 902.35 260 893 C262.83 883.65 271.16 844.01 273 828 C274.84 811.99 271.44 791.05 273 780 C274.56 768.95 275.78 767.42 284 750 C292.22 732.58 323.21 675.27 331 657 C338.79 638.73 337.44 632.05 339 621 C340.56 609.95 339.59 590.9 342 579 C344.41 567.1 353.02 543.38 356 537 C358.98 530.62 360.73 529.33 363 534 C365.27 538.67 370.3 559.66 372 570 C373.7 580.34 375.57 595.67 375 607 C374.43 618.33 368.99 638.81 368 650 C367.01 661.19 371.26 664.33 368 686 C364.74 707.67 348.82 775.52 345 803 C341.18 830.48 341.28 862.58 341 880 C340.72 897.42 340.88 910.27 343 926 C345.12 941.73 352.6 976.69 356 991 C359.4 1005.31 364.88 1017.08 367 1027 C369.12 1036.92 370.43 1049.67 371 1061 C371.57 1072.33 372.42 1091.98 371 1107 C369.58 1122.02 362.42 1153.54 361 1167 C359.58 1180.46 358.73 1184.29 361 1202 C363.27 1219.71 372.47 1270.18 377 1292 C381.53 1313.82 390.59 1344.24 393 1356 C395.41 1367.76 394.43 1368.34 394 1375 C393.57 1381.66 395.1 1394.08 390 1403 C384.9 1411.92 362.82 1431.48 358 1438 C353.18 1444.52 355.43 1446.73 356 1449 C356.57 1451.27 357.75 1452.44 362 1454 C366.25 1455.56 376.65 1458.87 386 1460 C395.35 1461.13 420.49 1462.99 428 1462 C435.51 1461.01 436.88 1456.12 439 1453 C441.12 1449.88 441.16 1443.4 443 1440 C444.84 1436.6 451.86 1444.58 452 1429 C452.14 1413.42 444 1353.09 444 1330 C444 1306.91 449.31 1281.44 452 1266 C454.69 1250.56 461.3 1231.91 463 1221 C464.7 1210.09 464.85 1199.2 464 1189 C463.15 1178.8 458.13 1159.2 457 1149 C455.87 1138.8 454.44 1128.9 456 1117 C457.56 1105.1 465.59 1085.4 468 1065 C470.41 1044.6 470.73 995.24 473 973 C475.27 950.76 481.88 926.56 484 908 C486.12 889.44 486.73 852.06 488 842 C489.27 831.94 491.87 837.42 493 837 C494.13 836.58 495.15 830.5 496 839 C496.85 847.5 496.59 875.61 499 897 C501.41 918.39 510.45 965.35 513 990 C515.55 1014.65 514.73 1051.59 517 1071 C519.27 1090.41 528.29 1112.12 529 1127 C529.71 1141.88 523.13 1163.25 522 1176 C520.87 1188.75 519.44 1203.68 521 1217 C522.56 1230.32 530.17 1252.58 533 1270 C535.83 1287.42 540.86 1324.98 541 1340 C541.14 1355.02 534.71 1366.37 534 1376 C533.29 1385.63 536.28 1400.49 536 1408 C535.72 1415.51 529.88 1421.78 532 1429 C534.12 1436.22 545.76 1454.18 551 1459 C556.24 1463.82 558.8 1463.71 569 1463 C579.2 1462.29 614.64 1455.98 623 1454 C631.36 1452.02 627.58 1451.27 628 1449 C628.42 1446.73 630.82 1444.52 626 1438 C621.18 1431.48 599.1 1413.62 594 1403 C588.9 1392.38 586.03 1390.06 590 1363 C593.97 1335.94 617.47 1241.04 622 1212 C626.53 1182.96 623.27 1174.15 622 1158 C620.73 1141.85 614.13 1112.88 613 1098 C611.87 1083.12 613.01 1064.9 614 1053 C614.99 1041.1 617.02 1027.32 620 1014 C622.98 1000.68 631.88 976.57 635 959 C638.12 941.43 641.58 914.65 642 890 C642.42 865.35 638.99 800.16 638 785 C637.01 769.84 638.4 799.01 635 783 C631.6 766.99 616.69 691.12 614 672 C611.31 652.88 616.71 656.78 616 648 C615.29 639.22 609.85 619.49 609 610 C608.15 600.51 608.16 592.05 610 581 C611.84 569.95 619.59 538.8 622 532 C624.41 525.2 626.15 531.02 627 533 C627.85 534.98 626.02 539.91 628 546 C629.98 552.09 638.59 566.08 641 576 C643.41 585.92 643.02 604.1 645 616 C646.98 627.9 648.2 643.28 655 660 C661.8 676.72 685.07 717.14 693 734 C700.93 750.86 708.45 766.39 711 779 C713.55 791.61 709.3 806.99 711 823 C712.7 839.01 720.31 881.8 723 892 C725.69 902.2 728.16 895.42 730 895 C731.84 894.58 733.88 887.02 736 889 C738.12 890.98 743.02 906.02 745 909 C746.98 911.98 748.3 910.85 750 910 C751.7 909.15 755.16 902.86 757 903 C758.84 903.14 761.16 909.73 763 911 C764.84 912.27 768.44 912.57 770 912 C771.56 911.43 773.29 909.27 774 907 C774.71 904.73 773.73 896.99 775 896 C776.27 895.01 780.73 899.86 783 900 C785.27 900.14 790.01 901.25 791 897 C791.99 892.75 791.13 878.5 790 870 C788.87 861.5 783.57 841.96 783 837 C782.43 832.04 783.88 834.01 786 835 C788.12 835.99 795.31 842.73 798 844 C800.69 845.27 803.44 844.57 805 844 C806.56 843.43 811.69 846.66 809 840 C806.31 833.34 793.23 807.62 786 797 C778.77 786.38 763.67 778.74 758 765 C752.33 751.26 748.55 719.41 746 700 C743.45 680.59 745.1 651.09 740 628 C734.9 604.91 714.53 555.98 710 537 C705.47 518.02 709.42 504.91 708 494 C706.58 483.09 700.85 473.88 700 460 C699.15 446.12 702.99 409.32 702 396 C701.01 382.68 696.54 373.65 693 366 C689.46 358.35 681.82 347.24 677 342 C672.18 336.76 667.08 332.54 659 329 C650.92 325.46 636.58 324.51 620 317 C603.42 309.49 552.91 284.93 542 276 C531.09 267.07 543.42 258.53 543 254 C542.58 249.47 538.72 246.69 539 244 C539.28 241.31 543.58 238.97 545 235 C546.42 231.03 546.73 220.25 549 216 C551.27 211.75 558.45 210.1 561 205 C563.55 199.9 566.29 185.1 567 180 C567.71 174.9 567.27 171.41 566 169 C564.73 166.59 559.42 170.37 558 163 C556.58 155.63 557.13 125.5 556 117 C554.87 108.5 553.12 107.39 550 103 C546.88 98.61 539.67 89.97 534 86 C528.33 82.03 516.8 76.84 510 75 C503.2 73.16 492.09 72.72 486 73 Z"/>
    </g>
  </g>
</svg>