<svg xmlns="http://www.w3.org/2000/svg" viewBox="0 0 724 1536">
  <rect width="100%" height="100%" fill="#FFFFFF"/>
  <g id="anterior-muscle-heatmap">
    <g id="body-base">
      <path id="body-outline" d="M 355 74 L 336 78 L 323 84 L 306 99 L 299 111 L 293 135 L 293 165 L 287 168 L 284 173 L 285 189 L 291 208 L 295 214 L 302 218 L 310 240 L 315 246 L 316 277 L 313 287 L 310 292 L 300 301 L 283 311 L 280 310 L 279 312 L 254 323 L 226 328 L 214 332 L 199 340 L 188 351 L 176 373 L 172 383 L 167 408 L 168 461 L 154 549 L 149 568 L 142 583 L 140 584 L 138 595 L 134 601 L 127 620 L 118 663 L 113 700 L 101 751 L 93 772 L 67 798 L 45 838 L 45 842 L 53 844 L 64 838 L 69 841 L 69 848 L 63 874 L 62 896 L 65 899 L 74 898 L 78 900 L 79 906 L 84 912 L 90 911 L 97 906 L 102 909 L 107 909 L 111 905 L 114 894 L 118 892 L 126 894 L 129 892 L 132 884 L 134 858 L 142 822 L 143 811 L 140 793 L 141 781 L 161 734 L 201 654 L 210 619 L 215 579 L 219 563 L 225 548 L 231 523 L 236 520 L 240 522 L 250 559 L 254 582 L 255 616 L 250 633 L 236 663 L 229 693 L 214 733 L 207 760 L 202 799 L 202 846 L 213 924 L 222 966 L 234 1007 L 241 1046 L 243 1105 L 234 1161 L 234 1204 L 242 1252 L 264 1347 L 266 1377 L 263 1385 L 264 1401 L 253 1415 L 230 1438 L 228 1446 L 230 1451 L 242 1456 L 268 1461 L 290 1463 L 304 1459 L 309 1454 L 315 1439 L 321 1434 L 323 1429 L 322 1414 L 319 1407 L 322 1376 L 317 1363 L 315 1342 L 322 1278 L 334 1218 L 334 1183 L 327 1137 L 327 1123 L 337 1086 L 341 1058 L 344 975 L 356 875 L 356 840 L 354 824 L 359 821 L 363 821 L 369 825 L 368 874 L 380 970 L 384 1067 L 390 1098 L 397 1122 L 397 1137 L 390 1187 L 390 1216 L 402 1276 L 409 1334 L 409 1353 L 402 1378 L 405 1405 L 401 1419 L 401 1429 L 404 1435 L 410 1440 L 414 1453 L 420 1459 L 427 1462 L 445 1462 L 483 1456 L 493 1452 L 496 1448 L 494 1438 L 471 1415 L 460 1399 L 461 1386 L 458 1376 L 458 1362 L 486 1233 L 491 1194 L 490 1158 L 482 1117 L 481 1076 L 484 1040 L 489 1012 L 502 966 L 513 914 L 519 875 L 523 831 L 522 796 L 516 754 L 511 735 L 494 688 L 490 669 L 475 634 L 469 613 L 469 594 L 472 572 L 485 523 L 489 521 L 494 524 L 498 543 L 508 573 L 515 623 L 524 655 L 572 752 L 584 783 L 582 824 L 589 853 L 591 875 L 595 892 L 598 894 L 606 891 L 610 893 L 613 904 L 618 909 L 628 906 L 637 912 L 642 911 L 645 907 L 646 899 L 650 897 L 653 899 L 659 899 L 662 895 L 661 873 L 655 841 L 660 838 L 670 844 L 676 844 L 679 841 L 679 838 L 659 800 L 642 782 L 636 778 L 630 770 L 622 746 L 615 718 L 604 651 L 596 616 L 583 584 L 579 578 L 571 552 L 556 460 L 556 398 L 548 371 L 537 352 L 521 337 L 505 330 L 470 323 L 455 317 L 447 312 L 435 308 L 414 292 L 408 277 L 409 248 L 417 234 L 422 218 L 428 215 L 433 209 L 440 185 L 440 171 L 437 167 L 431 164 L 431 135 L 429 123 L 425 111 L 415 95 L 401 84 L 382 76 Z" fill="#C7C6C4" stroke="#D8D8D8" stroke-width="1.5" stroke-linecap="round" stroke-linejoin="round"/>
    </g>
    <g id="yellow-muscles">
      <path id="left-trapezius-yellow" d="M 323 261 L 320 287 L 337 332 L 345 346 L 351 350 L 351 343 L 347 333 L 344 317 L 331 272 L 327 264 Z" fill="#F9E893"/>
      <path id="right-trapezius-yellow" d="M 401 261 L 396 266 L 390 282 L 385 303 L 381 313 L 379 325 L 374 339 L 373 348 L 377 347 L 386 335 L 398 304 L 399 298 L 405 286 L 403 281 Z" fill="#F9E893"/>
      <path id="right-shoulder-trapezius-yellow" d="M 409 297 L 409 310 L 413 323 L 422 335 L 428 337 L 435 337 L 467 329 L 461 325 L 432 313 L 418 304 L 410 296 Z" fill="#F9E893"/>
      <path id="left-shoulder-trapezius-yellow" d="M 315 298 L 311 299 L 308 303 L 292 313 L 259 327 L 259 329 L 262 331 L 277 334 L 280 337 L 298 336 L 303 334 L 313 318 L 315 309 Z" fill="#F9E893"/>
      <path id="right-forearm-yellow" d="M 569 572 L 562 590 L 558 632 L 532 604 L 519 600 L 520 613 L 535 665 L 567 713 L 562 716 L 585 767 L 590 768 L 594 763 L 604 766 L 608 761 L 616 761 L 616 754 L 601 701 L 598 654 L 588 614 Z" fill="#F9E893"/>
      <path id="left-forearm-yellow" d="M 155 572 L 131 632 L 127 650 L 123 705 L 108 755 L 108 761 L 116 761 L 121 766 L 130 765 L 134 768 L 140 766 L 161 719 L 161 705 L 188 668 L 199 637 L 205 599 L 193 603 L 166 631 L 163 592 Z" fill="#F9E893"/>

      <path id="left-shin-yellow" d="M 255 1122 L 252 1126 L 248 1141 L 247 1162 L 245 1172 L 248 1218 L 253 1241 L 255 1243 L 256 1251 L 265 1275 L 265 1279 L 280 1325 L 285 1353 L 289 1354 L 295 1350 L 295 1342 L 286 1293 L 284 1246 L 279 1192 L 274 1167 L 265 1136 L 260 1126 Z" fill="#F9E893"/>
      <path id="right-shin-yellow" d="M 470 1123 L 466 1124 L 459 1135 L 445 1191 L 441 1233 L 438 1291 L 429 1342 L 429 1349 L 435 1354 L 439 1353 L 441 1336 L 447 1315 L 452 1303 L 457 1281 L 459 1279 L 464 1261 L 468 1253 L 479 1198 L 479 1168 L 473 1128 Z" fill="#F9E893"/>
      <path id="right-inner-calf-yellow" d="M 404 1145 L 401 1153 L 396 1182 L 395 1209 L 400 1241 L 403 1252 L 406 1256 L 409 1254 L 414 1246 L 421 1230 L 423 1200 L 418 1172 L 410 1152 Z" fill="#F9E893"/>
      <path id="left-inner-calf-yellow" d="M 321 1146 L 317 1147 L 312 1156 L 304 1179 L 301 1195 L 301 1222 L 304 1233 L 314 1253 L 317 1256 L 319 1256 L 323 1246 L 329 1211 L 328 1183 Z" fill="#F9E893"/>
    </g>
    <g id="orange-muscles">
      <path id="left-deltoid-orange" d="M 341 358 L 335 352 L 326 349 L 294 346 L 284 348 L 272 354 L 258 364 L 255 364 L 256 365 L 252 369 L 249 366 L 270 346 L 270 342 L 253 335 L 242 333 L 230 333 L 209 341 L 194 353 L 184 371 L 178 386 L 173 413 L 174 446 L 176 450 L 183 450 L 195 439 L 211 428 L 219 419 L 232 396 L 232 392 L 240 376 L 249 366 L 252 369 L 245 378 L 234 397 L 228 411 L 228 415 L 235 423 L 237 429 L 238 447 L 239 446 L 237 427 L 234 421 L 228 415 L 228 412 L 244 380 L 260 362 L 276 352 L 288 347 L 312 347 L 325 349 L 336 353 Z" fill="#F1A952"/>
      <path id="right-deltoid-orange" d="M 526 349 L 515 341 L 505 336 L 494 333 L 476 334 L 454 342 L 454 346 L 472 362 L 474 367 L 478 369 L 476 370 L 478 370 L 484 376 L 491 389 L 493 396 L 492 399 L 487 393 L 473 369 L 462 360 L 445 350 L 437 347 L 424 346 L 402 348 L 388 353 L 382 361 L 377 377 L 370 426 L 371 455 L 373 463 L 382 479 L 396 492 L 406 497 L 422 502 L 445 502 L 456 499 L 467 493 L 479 478 L 484 466 L 487 429 L 490 422 L 496 415 L 496 411 L 491 400 L 493 398 L 506 420 L 514 429 L 530 439 L 541 450 L 547 451 L 550 447 L 551 440 L 551 410 L 547 388 L 534 359 Z" fill="#F1A952"/>
      <path id="left-upper-arm-orange" d="M 223 427 L 220 427 L 208 433 L 200 441 L 190 448 L 182 462 L 171 488 L 164 522 L 163 549 L 169 579 L 173 585 L 183 584 L 203 568 L 214 551 L 223 530 L 227 510 L 230 481 L 226 437 Z" fill="#F1A952"/>
      <path id="right-upper-arm-orange" d="M 501 427 L 498 439 L 495 488 L 498 515 L 502 532 L 509 549 L 522 569 L 540 583 L 549 586 L 553 583 L 555 579 L 561 550 L 561 529 L 554 490 L 546 470 L 534 448 L 508 428 Z" fill="#F1A952"/>
      <path id="left-oblique-rib-1-orange" d="M252 511 C261 511 278 517 285 525 C290 531 291 540 287 545 C277 544 260 537 254 530 C250 525 249 515 252 511 Z" fill="#F1A952"/>
      <path id="left-oblique-rib-2-orange" d="M257 542 C267 546 283 556 290 566 C293 573 291 582 286 586 C275 582 262 570 258 561 C256 555 254 546 257 542 Z" fill="#F1A952"/>
      <path id="left-oblique-rib-3-orange" d="M261 584 C270 591 284 603 290 615 C293 622 290 630 283 632 C273 624 262 611 258 601 C256 595 257 587 261 584 Z" fill="#F1A952"/>
      <path id="left-oblique-lower-orange" d="M263 618 C275 635 290 665 292 692 C293 704 287 713 279 713 C268 709 253 700 247 687 C242 674 249 645 258 623 C259 620 261 618 263 618 Z" fill="#F1A952"/>
      <use id="right-oblique-rib-1-orange" href="#left-oblique-rib-1-orange" transform="translate(724 0) scale(-1 1)"/>
      <use id="right-oblique-rib-2-orange" href="#left-oblique-rib-2-orange" transform="translate(724 0) scale(-1 1)"/>
      <use id="right-oblique-rib-3-orange" href="#left-oblique-rib-3-orange" transform="translate(724 0) scale(-1 1)"/>
      <use id="right-oblique-lower-orange" href="#left-oblique-lower-orange" transform="translate(724 0) scale(-1 1)"/>
      <path id="left-quad-orange" d="M 259.0 774.0 C 254.2 774.8, 245.8 806.2, 244.0 829.0 C 242.2 851.8, 244.3 884.2, 248.0 911.0 C 251.7 937.8, 261.3 972.7, 266.0 990.0 C 270.7 1007.3, 273.2 1010.2, 276.0 1015.0 C 278.8 1019.8, 280.8 1019.3, 283.0 1019.0 C 285.2 1018.7, 285.7 1025.8, 289.0 1013.0 C 292.3 1000.2, 300.7 958.8, 303.0 942.0 C 305.3 925.2, 304.2 922.3, 303.0 912.0 C 301.8 901.7, 301.0 894.7, 296.0 880.0 C 291.0 865.3, 279.2 841.7, 273.0 824.0 C 266.8 806.3, 263.8 773.2, 259.0 774.0 Z" fill="#F1A952"/>
      <path id="left-medial-quad-orange" d="M 233.0 851.0 C 229.8 841.2, 225.3 871.3, 224.0 884.0 C 222.7 896.7, 222.3 908.2, 225.0 927.0 C 227.7 945.8, 234.5 976.8, 240.0 997.0 C 245.5 1017.2, 254.0 1038.5, 258.0 1048.0 C 262.0 1057.5, 262.3 1057.3, 264.0 1054.0 C 265.7 1050.7, 271.5 1046.5, 268.0 1028.0 C 264.5 1009.5, 248.8 972.5, 243.0 943.0 C 237.2 913.5, 236.2 860.8, 233.0 851.0 Z" fill="#F1A952"/>
      <path id="right-quad-orange" d="M 465.0 774.0 C 461.5 765.2, 461.7 770.7, 460.0 777.0 C 458.3 783.3, 461.0 791.8, 455.0 812.0 C 449.0 832.2, 429.2 873.7, 424.0 898.0 C 418.8 922.3, 422.5 939.8, 424.0 958.0 C 425.5 976.2, 430.3 997.0, 433.0 1007.0 C 435.7 1017.0, 437.3 1016.8, 440.0 1018.0 C 442.7 1019.2, 445.2 1021.2, 449.0 1014.0 C 452.8 1006.8, 457.8 995.8, 463.0 975.0 C 468.2 954.2, 477.0 913.2, 480.0 889.0 C 483.0 864.8, 483.5 849.2, 481.0 830.0 C 478.5 810.8, 468.5 782.8, 465.0 774.0 Z" fill="#F1A952"/>
      <path id="right-medial-quad-orange" d="M 491.0 852.0 C 488.2 860.0, 488.7 906.8, 483.0 935.0 C 477.3 963.2, 461.3 1002.3, 457.0 1021.0 C 452.7 1039.7, 456.3 1041.3, 457.0 1047.0 C 457.7 1052.7, 456.5 1063.3, 461.0 1055.0 C 465.5 1046.7, 477.8 1017.0, 484.0 997.0 C 490.2 977.0, 495.3 953.3, 498.0 935.0 C 500.7 916.7, 501.2 900.8, 500.0 887.0 C 498.8 873.2, 493.8 844.0, 491.0 852.0 Z" fill="#F1A952"/>
      <path id="left-inner-lower-quad-orange" d="M 311.0 919.0 C 309.5 920.5, 311.7 937.7, 311.0 947.0 C 310.3 956.3, 308.2 969.8, 307.0 975.0 C 305.8 980.2, 304.5 975.8, 304.0 978.0 C 303.5 980.2, 305.2 982.8, 304.0 988.0 C 302.8 993.2, 298.2 1001.3, 297.0 1009.0 C 295.8 1016.7, 296.0 1025.8, 297.0 1034.0 C 298.0 1042.2, 300.2 1053.0, 303.0 1058.0 C 305.8 1063.0, 310.2 1064.7, 314.0 1064.0 C 317.8 1063.3, 322.7 1061.3, 326.0 1054.0 C 329.3 1046.7, 333.3 1034.0, 334.0 1020.0 C 334.7 1006.0, 331.3 979.2, 330.0 970.0 C 328.7 960.8, 327.7 970.3, 326.0 965.0 C 324.3 959.7, 322.5 945.7, 320.0 938.0 C 317.5 930.3, 312.5 917.5, 311.0 919.0 Z" fill="#F1A952"/>
      <path id="right-inner-lower-quad-orange" d="M 412.0 923.0 C 410.8 917.3, 410.7 919.7, 408.0 927.0 C 405.3 934.3, 398.8 954.3, 396.0 967.0 C 393.2 979.7, 391.7 992.2, 391.0 1003.0 C 390.3 1013.8, 391.2 1024.2, 392.0 1032.0 C 392.8 1039.8, 393.5 1044.8, 396.0 1050.0 C 398.5 1055.2, 403.3 1061.2, 407.0 1063.0 C 410.7 1064.8, 415.3 1062.5, 418.0 1061.0 C 420.7 1059.5, 421.5 1059.0, 423.0 1054.0 C 424.5 1049.0, 426.7 1039.8, 427.0 1031.0 C 427.3 1022.2, 427.0 1012.7, 425.0 1001.0 C 423.0 989.3, 417.2 974.0, 415.0 961.0 C 412.8 948.0, 413.2 928.7, 412.0 923.0 Z" fill="#F1A952"/>

    </g>
    <g id="yellow-upper-leg-front" fill="#F9E893">
      <path id="left-lateral-hip-flexor-yellow" d="M 239.0 696.0 C 232.3 709.3, 218.3 770.8, 214.0 796.0 C 209.7 821.2, 212.3 832.5, 213.0 847.0 C 213.7 861.5, 216.2 882.0, 218.0 883.0 C 219.8 884.0, 218.5 870.2, 224.0 853.0 C 229.5 835.8, 245.5 797.7, 251.0 780.0 C 256.5 762.3, 256.5 757.7, 257.0 747.0 C 257.5 736.3, 257.0 724.5, 254.0 716.0 C 251.0 707.5, 245.7 682.7, 239.0 696.0 Z" fill="#F9E893"/>
      <path id="left-inner-thigh-yellow" d="M 260.0 715.0 C 260.0 722.5, 264.2 758.2, 267.0 775.0 C 269.8 791.8, 268.5 792.7, 277.0 816.0 C 285.5 839.3, 308.0 887.8, 318.0 915.0 C 328.0 942.2, 333.7 975.2, 337.0 979.0 C 340.3 982.8, 336.8 947.0, 338.0 938.0 C 339.2 929.0, 342.2 934.2, 344.0 925.0 C 345.8 915.8, 349.3 898.3, 349.0 883.0 C 348.7 867.7, 348.3 851.8, 342.0 833.0 C 335.7 814.2, 323.0 788.7, 311.0 770.0 C 299.0 751.3, 277.3 727.7, 270.0 721.0 C 262.7 714.3, 268.7 731.0, 267.0 730.0 C 265.3 729.0, 260.0 707.5, 260.0 715.0 Z" fill="#F9E893"/>
      <path id="right-lateral-hip-flexor-yellow" d="M 485.0 696.0 C 478.2 682.3, 472.8 707.5, 470.0 717.0 C 467.2 726.5, 467.3 742.0, 468.0 753.0 C 468.7 764.0, 469.5 769.0, 474.0 783.0 C 478.5 797.0, 489.7 820.3, 495.0 837.0 C 500.3 853.7, 503.3 880.5, 506.0 883.0 C 508.7 885.5, 510.2 866.0, 511.0 852.0 C 511.8 838.0, 515.3 825.0, 511.0 799.0 C 506.7 773.0, 491.8 709.7, 485.0 696.0 Z" fill="#F9E893"/>
      <path id="right-inner-thigh-yellow" d="M 463.0 718.0 C 462.2 714.2, 457.5 728.3, 456.0 729.0 C 454.5 729.7, 461.7 714.3, 454.0 722.0 C 446.3 729.7, 421.7 757.5, 410.0 775.0 C 398.3 792.5, 389.7 811.7, 384.0 827.0 C 378.3 842.3, 377.3 856.0, 376.0 867.0 C 374.7 878.0, 375.0 882.0, 376.0 893.0 C 377.0 904.0, 380.3 926.7, 382.0 933.0 C 383.7 939.3, 385.0 923.3, 386.0 931.0 C 387.0 938.7, 384.2 983.0, 388.0 979.0 C 391.8 975.0, 399.2 934.0, 409.0 907.0 C 418.8 880.0, 438.3 842.8, 447.0 817.0 C 455.7 791.2, 458.3 768.5, 461.0 752.0 C 463.7 735.5, 463.8 721.8, 463.0 718.0 Z" fill="#F9E893"/>
    </g>
    <g id="red-muscles">
      <path id="right-pectoral-red" d="M 395 351 L 388 354 L 385 357 L 376 386 L 371 426 L 371 449 L 375 465 L 384 480 L 392 488 L 406 496 L 430 502 L 438 502 L 453 499 L 465 493 L 474 484 L 482 469 L 484 461 L 486 427 L 495 415 L 494 408 L 473 371 L 463 362 L 440 349 L 430 347 Z" fill="#F42C2F"/>
      <path id="left-pectoral-red" d="M 325 350 L 312 348 L 288 348 L 269 357 L 260 363 L 249 374 L 230 409 L 229 415 L 235 421 L 238 427 L 240 459 L 243 471 L 251 485 L 259 493 L 271 499 L 292 502 L 306 500 L 318 496 L 332 488 L 341 479 L 350 463 L 353 450 L 353 424 L 347 381 L 339 357 L 336 354 Z" fill="#F42C2F"/>
      <path id="upper-ab-red-left" d="M 354 500 L 345 499 L 333 503 L 317 512 L 303 524 L 300 532 L 300 548 L 301 552 L 304 555 L 314 551 L 331 540 L 349 535 L 355 531 L 357 527 L 357 509 Z" fill="#F42C2F"/>
      <path id="upper-ab-red-right" d="M 372 499 L 369 502 L 367 509 L 367 527 L 369 531 L 375 535 L 399 543 L 414 553 L 421 554 L 424 547 L 424 532 L 422 525 L 419 521 L 395 505 L 378 499 Z" fill="#F42C2F"/>
      <path id="mid-ab-red-left" d="M 354 546 L 351 544 L 343 544 L 336 546 L 320 554 L 312 560 L 303 572 L 301 582 L 303 592 L 307 595 L 315 595 L 351 590 L 355 586 L 357 581 L 357 556 Z" fill="#F42C2F"/>
      <path id="mid-ab-red-right" d="M 371 545 L 368 549 L 367 554 L 367 580 L 369 586 L 372 589 L 378 591 L 418 595 L 422 589 L 423 579 L 422 574 L 417 565 L 407 556 L 392 548 L 381 544 Z" fill="#F42C2F"/>
      <path id="lower-ab-red-left" d="M 351 600 L 341 599 L 310 603 L 304 606 L 301 616 L 301 628 L 303 640 L 307 647 L 317 651 L 344 651 L 353 646 L 357 634 L 357 612 L 356 607 Z" fill="#F42C2F"/>
      <path id="lower-ab-red-right" d="M 369 604 L 367 610 L 367 635 L 369 643 L 372 647 L 380 651 L 408 651 L 417 647 L 420 642 L 423 631 L 423 616 L 421 608 L 418 605 L 410 602 L 385 599 L 373 600 Z" fill="#F42C2F"/>
      <path id="lower-center-ab-red-left" d="M 310 658 L 307 660 L 306 663 L 306 678 L 318 725 L 330 757 L 337 771 L 346 783 L 354 785 L 358 781 L 359 707 L 358 680 L 356 670 L 351 663 L 343 660 Z" fill="#F42C2F"/>
      <path id="lower-center-ab-red-right" d="M 414 658 L 381 660 L 371 665 L 367 672 L 365 753 L 366 779 L 367 783 L 370 785 L 378 783 L 383 778 L 393 759 L 406 725 L 418 679 L 418 662 Z" fill="#F42C2F"/>
    </g>
    <g id="separators-white" fill="none" stroke="#FFFFFF" stroke-width="0.9" stroke-linecap="round" stroke-linejoin="round">
      <path id="left-forearm-line-1" d="M 126 760 C 139 724 154 689 170 650"/>
      <path id="left-forearm-line-2" d="M 138 761 C 151 729 166 695 180 662"/>
      <path id="left-forearm-line-3" d="M 149 761 C 162 733 176 704 190 672"/>
      <use id="right-forearm-line-1" href="#left-forearm-line-1" transform="translate(724 0) scale(-1 1)"/>
      <use id="right-forearm-line-2" href="#left-forearm-line-2" transform="translate(724 0) scale(-1 1)"/>
      <use id="right-forearm-line-3" href="#left-forearm-line-3" transform="translate(724 0) scale(-1 1)"/>
    </g> </g>
</svg>
