<svg xmlns="http://www.w3.org/2000/svg" viewBox="0 0 921 1536">
  <rect width="100%" height="100%" fill="#FFFFFF"/>
  <g id="posterior-muscle-heatmap">
    <g id="body-base">
      <path id="body-outline" fill="#C9C9C9" stroke="#D8D8D8" stroke-width="2" stroke-linecap="round" stroke-linejoin="round" d="M444 74 L422 80 L406 90 L394 105 L386 128 L386 164 L377 172 L377 184 L385 209 L396 218 L404 247 L400 277 L391 286 L346 309 L286 331 L263 350 L253 368 L245 397 L245 462 L237 493 L233 541 L204 628 L196 708 L185 766 L179 780 L156 802 L134 846 L145 848 L153 844 L158 847 L151 900 L157 905 L167 905 L172 917 L179 917 L186 912 L198 914 L204 899 L209 897 L215 900 L220 897 L233 820 L233 779 L244 750 L287 667 L298 623 L303 576 L315 542 L320 539 L324 541 L335 582 L336 615 L330 653 L330 683 L321 719 L305 814 L303 891 L313 969 L331 1050 L332 1103 L321 1167 L321 1221 L353 1363 L354 1388 L352 1407 L337 1422 L320 1429 L316 1441 L319 1447 L329 1453 L378 1469 L402 1467 L408 1463 L413 1453 L410 1425 L413 1392 L406 1372 L406 1334 L425 1219 L424 1184 L416 1144 L416 1125 L428 1073 L432 983 L446 891 L448 853 L453 850 L458 853 L460 899 L472 972 L476 1065 L490 1131 L480 1191 L480 1225 L492 1279 L500 1344 L500 1365 L492 1392 L496 1413 L492 1453 L494 1459 L503 1467 L528 1469 L578 1452 L589 1442 L586 1429 L568 1422 L553 1407 L551 1390 L553 1358 L584 1222 L585 1174 L575 1128 L573 1062 L577 1031 L593 964 L602 879 L599 806 L587 735 L575 686 L575 651 L569 621 L571 575 L580 539 L584 537 L590 541 L603 579 L609 633 L619 669 L659 744 L673 781 L673 829 L685 897 L689 900 L696 897 L701 899 L708 914 L719 911 L727 917 L733 917 L737 904 L751 904 L754 900 L747 847 L753 844 L765 849 L771 844 L747 800 L725 779 L721 771 L708 704 L700 625 L671 538 L668 493 L659 458 L661 407 L651 366 L637 345 L622 333 L567 313 L515 287 L507 280 L502 268 L502 244 L508 219 L520 209 L528 183 L527 169 L518 163 L517 118 L505 96 L491 84 L472 76 Z"/>
    </g>
    <g id="inactive-gray">
      <!-- Gray inactive areas are the exposed body-base between colored panels. -->
    </g>
    <g id="yellow-muscles">
      <path id="left-trapezius-yellow" fill="#FFF176" d="M433 217 L428 245 L416 272 L395 292 L331 323 L330 328 L349 338 L359 337 L362 339 L361 343 L366 345 L371 340 L391 343 L388 347 L392 349 L397 344 L414 350 L412 355 L420 360 L426 357 L424 362 L428 366 L434 363 L436 368 L433 370 L438 376 L444 369 L444 358 L432 322 L432 310 L443 272 L446 234 L442 220 Z"/>
      <path id="right-trapezius-yellow" fill="#FFF176" d="M471 217 L465 218 L460 228 L461 266 L473 310 L472 324 L461 353 L460 369 L467 372 L465 378 L473 369 L470 364 L473 362 L477 366 L480 363 L475 361 L476 358 L487 352 L492 356 L500 353 L496 350 L499 346 L506 344 L509 350 L517 348 L517 342 L536 341 L538 345 L544 344 L544 338 L558 337 L576 326 L510 292 L492 275 L480 255 L474 219 Z"/>
      <path id="left-shoulder-yellow" fill="#FFF176" d="M351 354 L328 340 L318 330 L305 331 L279 344 L265 361 L256 380 L251 412 L253 442 L258 442 L293 419 L318 399 L351 358 Z"/>
      <path id="right-shoulder-yellow" fill="#FFF176" d="M555 352 L554 358 L589 401 L640 437 L652 442 L654 416 L650 384 L642 364 L627 345 L605 333 L588 330 L577 340 Z"/>
      <path id="left-lower-back-yellow" fill="#FFF176" d="M440 569 L427 576 L412 593 L400 644 L384 670 L406 682 L435 716 L445 723 L446 571 Z"/>
      <path id="right-lower-back-yellow" fill="#FFF176" d="M465 569 L459 571 L461 724 L497 683 L521 670 L504 641 L499 609 L493 593 L478 576 Z"/>
      <path id="right-forearm-yellow" fill="#FFF176" d="M678 587 L674 593 L663 640 L665 685 L660 684 L651 651 L640 631 L616 609 L614 619 L627 670 L666 742 L675 767 L681 772 L685 768 L661 693 L664 685 L667 687 L691 767 L705 767 L713 759 L701 703 L695 636 L688 609 Z"/>
      <path id="left-forearm-yellow" fill="#FFF176" d="M227 588 L212 625 L204 703 L192 760 L196 766 L212 769 L221 753 L224 755 L220 768 L223 772 L229 769 L247 727 L275 678 L286 646 L291 613 L287 611 L265 630 L253 653 L243 695 L239 700 L236 696 L242 669 L242 642 L235 608 Z"/>
      <path id="left-lateral-calf-yellow" fill="#FFF176" d="M347 1082 L345 1084 L348 1089 L340 1101 L329 1169 L328 1217 L336 1249 L350 1255 L363 1245 L368 1231 L369 1120 L361 1092 L354 1084 Z"/>
      <path id="right-lateral-calf-yellow" fill="#FFF176" d="M550 1086 L541 1098 L536 1118 L537 1232 L544 1248 L559 1255 L571 1246 L575 1231 L577 1179 L565 1104 L559 1093 L564 1089 L561 1086 Z"/>
      <path id="right-medial-calf-yellow" fill="#FFF176" d="M510 1088 L503 1099 L506 1105 L497 1131 L487 1205 L489 1235 L499 1269 L512 1263 L522 1251 L531 1215 L528 1118 L519 1093 Z"/>
      <path id="left-medial-calf-yellow" fill="#FFF176" d="M397 1090 L385 1095 L377 1116 L373 1198 L376 1231 L381 1247 L396 1266 L406 1269 L415 1241 L418 1199 L406 1122 L399 1107 L399 1100 L402 1098 L396 1096 Z"/>
    </g>
    <g id="orange-muscles">
      <path id="left-upper-back-orange" fill="#FFA726" d="M353 343 L376 367 L401 447 L444 523 L446 417 L441 381 L429 367 L410 355 L388 348 Z"/>
      <path id="right-upper-back-orange" fill="#FFA726" d="M553 343 L495 355 L481 363 L465 379 L459 411 L462 523 L503 449 L529 367 Z"/>
      <path id="right-inner-upper-arm-orange" fill="#FFA726" d="M602 424 L594 448 L589 512 L613 592 L627 601 L630 579 L619 537 L620 518 L626 497 L615 448 L607 427 Z"/>
      <path id="left-inner-upper-arm-orange" fill="#FFA726" d="M304 425 L298 428 L290 448 L279 504 L284 514 L286 538 L275 578 L278 601 L292 591 L316 511 L311 450 Z"/>
      <path id="left-outer-upper-arm-orange" fill="#FFA726" d="M286 433 L262 449 L254 459 L248 476 L240 557 L250 585 L252 541 L259 519 L271 502 Z"/>
      <path id="right-outer-upper-arm-orange" fill="#FFA726" d="M619 433 L634 502 L646 518 L652 535 L655 584 L661 574 L665 556 L657 476 L648 454 Z"/>
      <path id="left-lateral-hamstring-orange" fill="#FFA726" d="M383 861 L370 865 L353 880 L340 913 L336 943 L336 1027 L341 1088 L351 1074 L365 1029 L371 936 Z"/>
      <path id="left-medial-hamstring-orange" fill="#FFA726" d="M394 861 L381 914 L375 1022 L386 1063 L402 1097 L403 1032 L415 959 L415 916 L403 872 Z"/>
      <path id="right-medial-hamstring-orange" fill="#FFA726" d="M511 861 L506 864 L494 895 L489 928 L490 959 L502 1038 L503 1097 L519 1062 L530 1023 L524 915 Z"/>
      <path id="right-lateral-hamstring-orange" fill="#FFA726" d="M521 861 L533 926 L539 1024 L550 1065 L564 1088 L569 1023 L569 944 L564 908 L548 875 L536 866 Z"/>
      <path id="right-hamstring-internal-orange-line" fill="#FFA726" d="M486 1001 L485 1016 L494 1075 L495 1040 Z"/>
      <path id="left-hamstring-internal-orange-line" fill="#FFA726" d="M419 1002 L410 1038 L410 1078 L417 1043 Z"/>
    </g>
    <g id="red-muscles">
      <path id="left-lat-red" fill="#FF2638" d="M321 458 L322 494 L341 581 L373 639 L381 662 L393 643 L407 588 L425 570 L444 560 L439 535 L397 457 L383 465 L367 469 L341 467 Z"/>
      <path id="right-lat-red" fill="#FF2638" d="M585 458 L565 467 L538 469 L508 457 L465 537 L461 560 L483 572 L499 590 L511 640 L525 662 L532 639 L564 580 L580 511 Z"/>
      <path id="left-glute-red" fill="#FF2638" d="M410 696 L380 708 L352 732 L338 756 L332 775 L332 803 L340 823 L354 839 L381 851 L404 851 L424 844 L439 831 L448 809 L447 743 Z"/>
      <path id="right-glute-red" fill="#FF2638" d="M494 696 L465 731 L456 748 L457 810 L464 828 L479 843 L502 851 L523 851 L547 842 L564 825 L573 801 L572 772 L560 742 L542 720 L522 706 Z"/>
    </g>
    <g id="separators-white">
      <path id="white-separator-regions" fill="#FFFFFF" fill-rule="evenodd" d="M551 1080 L545 1083 L532 1108 L522 1089 L516 1085 L516 1089 L525 1101 L530 1117 L534 1183 L532 1227 L526 1248 L509 1268 L499 1272 L513 1361 L512 1418 L515 1417 L517 1403 L517 1366 L504 1275 L520 1264 L534 1241 L547 1258 L561 1262 L548 1296 L534 1347 L526 1392 L525 1419 L527 1419 L531 1382 L541 1334 L555 1287 L568 1255 L555 1257 L548 1253 L539 1241 L536 1225 L538 1161 L535 1123 L539 1103 L546 1089 L552 1084 Z M355 1079 L356 1085 L366 1099 L371 1117 L369 1156 L370 1231 L365 1245 L357 1254 L351 1257 L339 1254 L357 1304 L369 1348 L377 1393 L379 1419 L382 1418 L382 1404 L374 1353 L364 1314 L346 1261 L359 1258 L373 1241 L383 1260 L403 1276 L390 1365 L390 1403 L392 1418 L396 1416 L394 1406 L394 1360 L408 1272 L393 1265 L380 1246 L376 1233 L373 1199 L374 1144 L377 1116 L384 1096 L392 1087 L387 1086 L374 1108 L364 1087 Z M191 878 L182 915 L189 912 Z M716 874 L718 908 L714 915 L719 912 L724 913 Z M697 873 L697 895 L695 899 L701 900 L702 894 Z M210 873 L205 900 L211 897 L209 893 Z M733 868 L737 905 L742 902 L743 904 Z M174 867 L163 903 L167 906 L170 904 Z M450 841 L449 853 L453 851 L457 853 L458 843 Z M162 833 L149 847 L154 845 L160 848 Z M744 832 L747 849 L754 844 Z M675 576 L663 619 L657 651 L642 625 L627 611 L616 604 L614 606 L637 625 L652 649 L659 669 L667 708 L687 769 L684 773 L679 774 L679 777 L687 778 L702 774 L715 767 L711 766 L697 771 L691 769 L667 693 L662 650 L667 619 L678 585 L678 579 Z M231 575 L228 584 L236 605 L244 641 L243 677 L237 704 L215 769 L208 771 L192 767 L193 770 L220 778 L228 776 L220 772 L220 767 L240 708 L247 672 L254 650 L269 625 L293 606 L293 603 L286 606 L267 622 L249 651 L245 625 Z M322 526 L316 542 L326 541 Z M584 525 L580 540 L584 538 L589 540 L587 527 Z M469 205 L438 205 L424 208 L410 219 L407 226 L408 237 L414 225 L420 219 L425 218 L427 220 L424 249 L409 278 L416 271 L424 257 L431 218 L440 217 L447 227 L446 268 L434 310 L435 324 L446 356 L446 372 L443 374 L427 358 L406 348 L388 343 L350 339 L328 327 L322 327 L319 330 L329 340 L354 355 L331 387 L313 406 L254 447 L255 450 L309 414 L330 394 L350 367 L358 359 L361 359 L369 367 L377 383 L385 416 L397 451 L384 460 L365 465 L347 464 L321 452 L319 454 L339 464 L353 467 L374 466 L397 455 L403 457 L390 424 L376 373 L368 361 L358 352 L345 345 L341 341 L342 339 L366 341 L367 343 L408 351 L429 363 L445 381 L450 406 L449 529 L446 532 L434 516 L444 538 L448 562 L429 572 L412 588 L406 601 L398 642 L389 659 L381 667 L377 665 L375 651 L366 631 L344 595 L349 609 L369 641 L375 668 L372 671 L359 672 L344 677 L337 683 L337 687 L352 678 L363 675 L378 675 L394 680 L422 703 L444 731 L452 747 L488 699 L510 681 L522 676 L543 675 L554 678 L569 687 L568 681 L558 675 L532 669 L533 654 L537 642 L557 609 L563 594 L541 630 L533 648 L530 665 L526 668 L516 656 L508 639 L502 604 L496 590 L483 576 L459 562 L460 548 L468 524 L507 455 L532 466 L548 468 L568 464 L588 453 L586 452 L563 463 L541 465 L525 461 L509 451 L535 370 L544 360 L550 360 L571 388 L591 409 L653 450 L653 447 L591 404 L552 355 L577 340 L588 329 L586 327 L579 327 L569 334 L555 339 L502 347 L479 358 L461 373 L462 348 L473 319 L473 311 L460 261 L459 232 L461 222 L466 217 L476 219 L481 252 L487 266 L495 276 L496 274 L483 250 L479 219 L487 220 L497 236 L500 231 L499 224 L493 215 L482 208 Z M439 569 L448 571 L449 702 L448 725 L446 727 L440 723 L408 685 L383 671 L400 643 L406 610 L412 593 L427 576 Z M460 567 L479 576 L496 595 L508 646 L513 656 L524 669 L523 672 L500 683 L484 699 L462 727 L459 726 Z M565 339 L563 343 L547 353 L535 365 L528 380 L515 430 L503 460 L466 526 L460 532 L458 529 L456 431 L458 395 L462 380 L477 363 L501 350 L519 345 Z"/>
    </g>
  </g>
</svg>