<svg xmlns="http://www.w3.org/2000/svg" viewBox="0 0 921 1536">
  <rect width="100%" height="100%" fill="#FFFFFF"/>
  <g id="anterior-muscle-heatmap">
    <g id="body-base">
      <path id="body-outline" fill="#C7C6C3" stroke="#D8D8D8" stroke-width="1" stroke-linecap="round" stroke-linejoin="round" d="M 448 71 L 429 74 L 416 79 L 406 86 L 398 94 L 393 101 L 386 118 L 384 130 L 384 152 L 386 163 L 384 165 L 379 164 L 375 168 L 375 184 L 378 195 L 386 209 L 394 214 L 398 230 L 409 249 L 409 265 L 407 274 L 403 280 L 394 288 L 375 298 L 335 312 L 310 317 L 293 323 L 281 331 L 273 339 L 261 361 L 256 374 L 250 414 L 252 453 L 244 484 L 238 543 L 234 562 L 216 607 L 213 622 L 211 625 L 207 645 L 201 705 L 197 727 L 190 753 L 184 769 L 160 790 L 132 834 L 134 837 L 137 838 L 146 836 L 153 831 L 160 821 L 161 822 L 160 831 L 150 867 L 147 887 L 148 891 L 151 894 L 156 894 L 159 891 L 169 861 L 170 865 L 165 893 L 165 903 L 168 907 L 171 908 L 177 905 L 186 871 L 187 882 L 184 894 L 184 902 L 186 904 L 193 905 L 196 902 L 205 866 L 207 890 L 214 891 L 217 887 L 222 855 L 232 814 L 231 785 L 249 740 L 276 690 L 290 656 L 295 641 L 300 617 L 302 580 L 315 542 L 322 514 L 324 513 L 330 532 L 337 572 L 341 585 L 342 608 L 336 629 L 334 631 L 322 662 L 312 709 L 298 749 L 292 774 L 287 814 L 289 853 L 299 916 L 324 1016 L 331 1057 L 332 1106 L 330 1129 L 323 1163 L 322 1208 L 331 1258 L 351 1334 L 358 1372 L 358 1387 L 355 1407 L 343 1418 L 325 1425 L 322 1429 L 322 1438 L 328 1445 L 337 1449 L 354 1454 L 373 1463 L 388 1466 L 399 1465 L 409 1460 L 414 1454 L 417 1445 L 416 1429 L 413 1415 L 416 1385 L 409 1366 L 408 1338 L 414 1290 L 423 1245 L 427 1212 L 426 1182 L 418 1130 L 427 1089 L 431 1059 L 431 992 L 444 892 L 443 842 L 450 836 L 455 835 L 463 842 L 462 887 L 466 922 L 472 956 L 475 988 L 475 1057 L 480 1092 L 488 1128 L 486 1149 L 480 1183 L 480 1221 L 484 1248 L 488 1263 L 498 1334 L 498 1361 L 490 1386 L 491 1399 L 493 1404 L 493 1420 L 490 1433 L 490 1447 L 496 1459 L 508 1465 L 518 1466 L 536 1462 L 547 1456 L 574 1447 L 579 1444 L 585 1436 L 584 1428 L 580 1424 L 565 1419 L 552 1407 L 549 1389 L 549 1368 L 556 1332 L 567 1292 L 568 1283 L 572 1273 L 581 1231 L 581 1225 L 583 1221 L 584 1173 L 581 1148 L 575 1119 L 575 1058 L 584 1008 L 600 947 L 612 890 L 618 848 L 619 813 L 617 792 L 609 751 L 594 709 L 590 686 L 583 659 L 569 623 L 567 621 L 565 613 L 565 587 L 572 559 L 577 527 L 582 511 L 585 515 L 590 537 L 603 576 L 607 620 L 618 660 L 633 695 L 657 739 L 674 782 L 674 812 L 685 860 L 690 889 L 694 892 L 700 889 L 701 868 L 704 875 L 709 900 L 713 905 L 719 905 L 722 902 L 718 870 L 719 866 L 723 878 L 728 903 L 734 908 L 739 907 L 741 904 L 741 890 L 736 867 L 737 860 L 739 864 L 740 873 L 747 891 L 750 894 L 755 894 L 759 889 L 757 870 L 751 851 L 745 823 L 746 822 L 756 833 L 762 837 L 770 838 L 774 834 L 748 792 L 722 769 L 713 741 L 706 711 L 700 651 L 697 634 L 689 603 L 687 601 L 684 590 L 675 571 L 668 544 L 663 491 L 655 458 L 656 408 L 654 401 L 654 393 L 646 363 L 634 340 L 619 326 L 601 318 L 568 311 L 534 299 L 513 288 L 502 279 L 498 271 L 498 248 L 507 233 L 512 214 L 516 212 L 526 200 L 531 183 L 530 166 L 528 164 L 520 164 L 520 120 L 513 101 L 505 90 L 497 83 L 486 77 L 473 73 Z"/>
    </g>
    <g id="yellow-muscles">
      <path id="right-trapezius-shoulder-yellow" fill="#FAE983" stroke="#FFFFFF" stroke-width="0.75" stroke-linecap="round" stroke-linejoin="round" d="M 465 219 L 462 220 L 460 223 L 458 230 L 459 256 L 462 279 L 471 312 L 471 319 L 461 345 L 460 366 L 462 369 L 465 370 L 459 381 L 457 402 L 456 453 L 459 520 L 460 512 L 458 415 L 460 383 L 463 376 L 475 362 L 491 351 L 519 342 L 541 339 L 551 340 L 536 357 L 524 380 L 519 405 L 508 439 L 492 472 L 475 499 L 464 520 L 467 520 L 469 522 L 468 524 L 472 516 L 470 515 L 472 508 L 481 493 L 483 494 L 483 496 L 491 483 L 489 481 L 491 479 L 492 481 L 491 479 L 493 478 L 491 477 L 496 466 L 504 457 L 505 448 L 518 415 L 524 386 L 533 365 L 540 354 L 547 347 L 560 339 L 554 341 L 553 340 L 559 334 L 558 333 L 573 325 L 574 321 L 557 313 L 528 304 L 503 289 L 491 277 L 490 273 L 484 266 L 479 255 L 474 235 L 473 224 L 469 220 Z"/>
      <path id="left-trapezius-shoulder-yellow" fill="#FAE983" stroke="#FFFFFF" stroke-width="0.75" stroke-linecap="round" stroke-linejoin="round" d="M 444 221 L 437 220 L 434 222 L 431 232 L 431 239 L 429 242 L 424 263 L 419 272 L 412 279 L 413 280 L 402 290 L 371 307 L 346 314 L 331 321 L 332 324 L 348 333 L 347 334 L 349 338 L 346 339 L 346 341 L 332 335 L 319 324 L 309 324 L 302 326 L 289 333 L 277 344 L 267 364 L 261 383 L 257 409 L 257 434 L 258 437 L 262 439 L 276 427 L 281 428 L 278 433 L 273 435 L 272 438 L 263 445 L 256 459 L 249 488 L 247 516 L 249 490 L 255 469 L 255 464 L 260 450 L 273 438 L 287 428 L 285 426 L 298 412 L 315 403 L 319 397 L 335 381 L 355 352 L 355 349 L 352 347 L 353 344 L 365 353 L 373 365 L 381 385 L 389 418 L 396 439 L 399 444 L 401 454 L 407 461 L 412 471 L 412 479 L 414 481 L 414 476 L 416 479 L 415 484 L 417 483 L 421 488 L 421 490 L 419 491 L 421 494 L 421 491 L 423 491 L 431 504 L 432 509 L 431 510 L 429 508 L 431 512 L 432 510 L 435 519 L 442 525 L 443 522 L 438 516 L 431 500 L 416 477 L 400 444 L 392 422 L 379 374 L 367 353 L 357 343 L 349 338 L 354 337 L 359 339 L 376 340 L 392 343 L 415 351 L 431 362 L 443 377 L 445 383 L 447 405 L 447 493 L 445 521 L 447 522 L 449 479 L 449 407 L 446 384 L 447 383 L 441 371 L 445 367 L 446 363 L 444 343 L 435 319 L 435 310 L 444 279 L 447 258 L 447 227 Z"/>
      <path id="right-shoulder-yellow" fill="#FAE983" stroke="#FFFFFF" stroke-width="0.75" stroke-linecap="round" stroke-linejoin="round" d="M 588 324 L 579 332 L 556 344 L 552 351 L 567 376 L 594 405 L 604 410 L 613 418 L 618 420 L 621 424 L 619 428 L 639 443 L 648 453 L 658 497 L 660 515 L 661 543 L 664 551 L 664 563 L 657 579 L 663 568 L 665 558 L 662 543 L 658 495 L 655 485 L 654 474 L 649 455 L 643 447 L 643 441 L 641 440 L 641 443 L 638 442 L 626 431 L 627 430 L 625 428 L 629 427 L 647 441 L 650 431 L 650 416 L 646 385 L 639 363 L 627 342 L 617 333 L 602 325 Z"/>
      <path id="right-arm-divider-yellow" fill="#FAE983" stroke="#FFFFFF" stroke-width="0.75" stroke-linecap="round" stroke-linejoin="round" d="M 602 420 L 608 425 L 615 440 L 624 478 L 626 481 L 627 498 L 622 510 L 620 527 L 622 543 L 629 562 L 632 578 L 631 591 L 628 596 L 632 591 L 632 576 L 629 560 L 623 544 L 621 534 L 621 521 L 623 508 L 629 497 L 632 498 L 639 507 L 649 529 L 652 543 L 652 574 L 652 540 L 645 516 L 641 508 L 632 496 L 625 456 L 622 445 L 617 435 L 617 431 L 614 433 L 607 424 L 607 422 Z"/>
      <path id="left-arm-divider-yellow" fill="#FAE983" stroke="#FFFFFF" stroke-width="0.75" stroke-linecap="round" stroke-linejoin="round" d="M 302 421 L 295 429 L 290 431 L 280 460 L 280 468 L 276 480 L 275 492 L 272 500 L 265 508 L 262 514 L 254 540 L 253 577 L 254 545 L 259 524 L 263 516 L 263 513 L 268 505 L 276 496 L 278 496 L 281 501 L 284 512 L 285 533 L 284 542 L 274 576 L 275 591 L 275 572 L 285 537 L 285 516 L 283 506 L 279 498 L 279 490 L 290 443 L 299 424 Z"/>
      <path id="left-lower-back-yellow" fill="#FAE983" stroke="#FFFFFF" stroke-width="0.75" stroke-linecap="round" stroke-linejoin="round" d="M 441 561 L 434 564 L 437 565 L 436 567 L 419 581 L 415 579 L 414 580 L 416 581 L 416 584 L 414 587 L 412 587 L 411 584 L 410 587 L 412 587 L 413 589 L 409 593 L 408 597 L 406 598 L 406 596 L 404 598 L 404 600 L 404 598 L 406 598 L 406 613 L 402 631 L 398 635 L 397 634 L 393 646 L 389 652 L 390 654 L 386 655 L 388 655 L 387 659 L 381 666 L 401 677 L 407 684 L 410 691 L 414 689 L 417 693 L 416 694 L 419 701 L 426 709 L 429 707 L 431 709 L 430 712 L 427 711 L 439 724 L 441 721 L 445 722 L 447 719 L 447 568 L 441 563 Z"/>
      <path id="right-lower-back-yellow" fill="#FAE983" stroke="#FFFFFF" stroke-width="0.75" stroke-linecap="round" stroke-linejoin="round" d="M 462 565 L 459 569 L 459 717 L 460 720 L 466 720 L 467 724 L 471 720 L 470 717 L 473 717 L 477 712 L 475 711 L 476 707 L 481 703 L 483 704 L 483 702 L 487 700 L 485 699 L 485 696 L 492 688 L 494 688 L 506 676 L 521 669 L 523 667 L 523 662 L 519 658 L 520 655 L 518 656 L 516 654 L 516 649 L 515 648 L 513 650 L 511 648 L 509 643 L 509 640 L 511 639 L 509 636 L 508 629 L 507 635 L 503 629 L 500 606 L 495 595 L 495 589 L 497 589 L 496 587 L 492 585 L 493 583 L 491 580 L 487 582 L 478 573 Z"/>
      <path id="right-forearm-yellow" fill="#FAE983" stroke="#FFFFFF" stroke-width="0.75" stroke-linecap="round" stroke-linejoin="round" d="M 673 589 L 668 603 L 668 609 L 664 621 L 660 655 L 660 671 L 657 666 L 654 652 L 647 635 L 634 615 L 617 604 L 613 604 L 613 615 L 618 634 L 618 639 L 629 671 L 644 702 L 664 738 L 673 762 L 676 767 L 680 768 L 682 766 L 682 751 L 684 752 L 687 761 L 691 766 L 707 763 L 711 760 L 711 754 L 706 740 L 700 711 L 695 662 L 687 619 L 679 595 Z"/>
      <path id="left-forearm-yellow" fill="#FAE983" stroke="#FFFFFF" stroke-width="0.75" stroke-linecap="round" stroke-linejoin="round" d="M 293 603 L 285 606 L 273 615 L 263 628 L 253 648 L 248 671 L 248 677 L 246 679 L 247 680 L 245 684 L 245 689 L 243 692 L 242 687 L 246 665 L 246 642 L 241 618 L 237 607 L 235 593 L 232 590 L 229 592 L 224 602 L 224 606 L 222 609 L 215 636 L 207 708 L 195 757 L 196 761 L 199 763 L 215 766 L 218 763 L 220 756 L 224 750 L 224 766 L 230 767 L 233 763 L 240 744 L 243 740 L 243 737 L 259 709 L 282 659 L 293 620 Z"/>
      <path id="right-inner-calf-yellow" fill="#FAE983" stroke="#FFFFFF" stroke-width="0.75" stroke-linecap="round" stroke-linejoin="round" d="M 517 857 L 512 858 L 507 864 L 499 880 L 491 913 L 491 950 L 496 991 L 496 1002 L 494 1003 L 490 997 L 496 1019 L 496 1073 L 499 1076 L 500 1091 L 499 1088 L 501 1076 L 501 1027 L 491 945 L 491 919 L 495 894 L 499 881 L 507 865 L 514 857 L 517 857 L 520 860 L 521 868 L 525 879 L 525 890 L 528 902 L 530 919 L 529 923 L 531 933 L 531 958 L 533 978 L 532 983 L 534 1007 L 533 1019 L 522 1055 L 517 1067 L 509 1080 L 507 1087 L 503 1092 L 505 1098 L 496 1120 L 493 1149 L 486 1185 L 486 1216 L 488 1234 L 494 1263 L 497 1267 L 507 1265 L 514 1260 L 521 1251 L 528 1233 L 532 1205 L 531 1201 L 533 1159 L 531 1150 L 529 1116 L 527 1106 L 521 1092 L 518 1088 L 510 1083 L 511 1078 L 523 1054 L 531 1025 L 535 1017 L 538 1020 L 539 1027 L 537 1012 L 536 950 L 532 896 L 530 882 L 527 874 L 526 860 L 525 858 L 522 861 Z"/>
      <path id="left-lower-leg-yellow" fill="#FAE983" stroke="#FFFFFF" stroke-width="0.75" stroke-linecap="round" stroke-linejoin="round" d="M 388 858 L 384 864 L 381 859 L 380 870 L 376 882 L 373 914 L 372 949 L 370 962 L 371 972 L 368 1027 L 360 1057 L 357 1061 L 351 1077 L 346 1083 L 344 1083 L 342 1080 L 342 1073 L 342 1080 L 346 1085 L 346 1089 L 340 1101 L 336 1135 L 329 1169 L 328 1207 L 332 1231 L 337 1247 L 339 1250 L 343 1252 L 355 1252 L 363 1246 L 370 1232 L 370 1199 L 372 1186 L 374 1188 L 376 1223 L 378 1235 L 382 1246 L 390 1258 L 400 1265 L 408 1267 L 412 1262 L 420 1221 L 421 1197 L 419 1176 L 413 1149 L 411 1121 L 403 1101 L 403 1096 L 405 1093 L 387 1062 L 376 1028 L 376 1032 L 384 1056 L 396 1078 L 397 1083 L 390 1087 L 384 1094 L 377 1116 L 373 1166 L 374 1184 L 372 1186 L 370 1183 L 370 1162 L 372 1143 L 372 1127 L 370 1113 L 371 1111 L 367 1097 L 358 1083 L 351 1081 L 355 1067 L 362 1051 L 369 1025 L 369 1020 L 372 1016 L 374 1019 L 375 1026 L 373 1013 L 373 999 L 375 982 L 377 915 L 383 870 Z"/>
      <path id="left-inner-calf-yellow" fill="#FAE983" stroke="#FFFFFF" stroke-width="0.75" stroke-linecap="round" stroke-linejoin="round" d="M 401 869 L 408 882 L 412 896 L 415 916 L 415 949 L 405 1040 L 405 1073 L 407 1091 L 409 1075 L 408 1074 L 410 1073 L 409 1071 L 411 1069 L 411 1021 L 414 1004 L 418 996 L 418 993 L 416 999 L 412 1001 L 411 990 L 413 981 L 416 943 L 415 911 L 410 887 Z"/>
      <path id="right-inner-calf-yellow-2" fill="#FAE983" stroke="#FFFFFF" stroke-width="0.75" stroke-linecap="round" stroke-linejoin="round" d="M 540 1029 L 545 1054 L 549 1065 L 554 1073 L 556 1081 L 549 1083 L 540 1096 L 535 1118 L 537 1157 L 536 1226 L 537 1233 L 543 1247 L 548 1251 L 561 1253 L 570 1247 L 575 1230 L 579 1199 L 578 1172 L 575 1160 L 574 1147 L 571 1138 L 567 1104 L 560 1090 L 562 1084 L 556 1077 L 548 1061 Z"/>
    </g>
    <g id="orange-muscles">
      <path id="left-mid-back-orange" fill="#F59F30" stroke="#FFFFFF" stroke-width="0.75" stroke-linecap="round" stroke-linejoin="round" d="M 350 338 L 357 342 L 373 360 L 380 374 L 393 422 L 404 451 L 417 477 L 428 493 L 439 516 L 444 522 L 446 493 L 446 405 L 445 390 L 442 377 L 431 363 L 415 352 L 383 342 Z"/>
      <path id="right-mid-back-orange" fill="#F59F30" stroke="#FFFFFF" stroke-width="0.75" stroke-linecap="round" stroke-linejoin="round" d="M 550 340 L 519 343 L 491 352 L 475 363 L 466 373 L 462 380 L 459 415 L 461 522 L 466 516 L 474 499 L 485 483 L 501 453 L 516 412 L 523 380 L 535 357 Z"/>
      <path id="left-inner-upper-arm-orange" fill="#F59F30" stroke="#FFFFFF" stroke-width="0.75" stroke-linecap="round" stroke-linejoin="round" d="M 304 421 L 300 424 L 292 440 L 284 469 L 282 485 L 280 490 L 280 498 L 284 506 L 286 516 L 286 537 L 276 572 L 276 592 L 279 596 L 286 594 L 292 589 L 295 584 L 299 563 L 313 526 L 314 515 L 318 499 L 318 491 L 313 470 L 308 427 L 306 422 Z"/>
      <path id="right-inner-upper-arm-orange" fill="#F59F30" stroke="#FFFFFF" stroke-width="0.75" stroke-linecap="round" stroke-linejoin="round" d="M 601 421 L 599 424 L 596 439 L 593 469 L 589 485 L 589 502 L 594 527 L 609 570 L 612 586 L 615 591 L 626 596 L 630 591 L 631 578 L 628 562 L 621 543 L 619 527 L 621 510 L 626 498 L 625 481 L 623 478 L 614 440 L 607 425 L 603 421 Z"/>
      <path id="left-outer-upper-arm-orange" fill="#F59F30" stroke="#FFFFFF" stroke-width="0.75" stroke-linecap="round" stroke-linejoin="round" d="M 289 429 L 286 429 L 284 432 L 273 439 L 261 450 L 256 464 L 256 469 L 249 497 L 247 535 L 243 556 L 244 566 L 250 578 L 252 578 L 252 548 L 256 528 L 264 508 L 272 498 L 275 487 L 275 480 L 279 468 L 279 460 L 283 446 L 289 434 Z"/>
      <path id="right-outer-upper-arm-orange" fill="#F59F30" stroke="#FFFFFF" stroke-width="0.75" stroke-linecap="round" stroke-linejoin="round" d="M 618 429 L 618 435 L 623 445 L 626 456 L 633 496 L 642 508 L 651 531 L 654 550 L 653 576 L 654 579 L 656 579 L 662 567 L 663 551 L 660 543 L 657 497 L 650 469 L 649 459 L 647 453 L 639 444 L 632 440 L 620 429 Z"/>
      <path id="left-outer-thigh-orange" fill="#F59F30" stroke="#FFFFFF" stroke-width="0.75" stroke-linecap="round" stroke-linejoin="round" d="M 379 857 L 366 861 L 348 877 L 342 889 L 337 909 L 335 933 L 336 999 L 341 1064 L 344 1082 L 346 1082 L 350 1077 L 356 1061 L 359 1057 L 367 1027 L 372 914 L 375 882 L 380 865 Z"/>
      <path id="right-outer-thigh-orange" fill="#F59F30" stroke="#FFFFFF" stroke-width="0.75" stroke-linecap="round" stroke-linejoin="round" d="M 527 857 L 527 867 L 531 882 L 535 920 L 538 975 L 538 1012 L 540 1028 L 549 1061 L 557 1077 L 562 1083 L 565 1066 L 571 990 L 571 927 L 569 908 L 564 887 L 555 872 L 537 859 Z"/>
      <path id="left-inner-thigh-orange" fill="#F59F30" stroke="#FFFFFF" stroke-width="0.75" stroke-linecap="round" stroke-linejoin="round" d="M 389 858 L 384 870 L 379 904 L 374 1013 L 376 1027 L 385 1055 L 402 1088 L 406 1092 L 404 1073 L 404 1040 L 414 949 L 414 916 L 411 896 L 405 877 L 396 861 L 392 858 Z"/>
      <path id="right-inner-thigh-orange" fill="#F59F30" stroke="#FFFFFF" stroke-width="0.75" stroke-linecap="round" stroke-linejoin="round" d="M 517 858 L 514 858 L 502 876 L 496 894 L 492 919 L 492 945 L 502 1027 L 502 1076 L 500 1088 L 501 1093 L 506 1087 L 508 1080 L 516 1067 L 521 1055 L 530 1027 L 533 1007 L 531 983 L 532 978 L 530 958 L 530 933 L 528 923 L 529 919 L 524 890 L 524 879 L 520 868 L 519 860 Z"/>
      <path id="left-thigh-slit-orange" fill="#F59F30" stroke="#FFFFFF" stroke-width="0.75" stroke-linecap="round" stroke-linejoin="round" d="M 421 991 L 419 992 L 419 996 L 415 1004 L 412 1021 L 412 1074 L 414 1069 L 415 1055 L 420 1028 Z"/>
      <path id="right-inner-thigh-orange-2" fill="#F59F30" stroke="#FFFFFF" stroke-width="0.75" stroke-linecap="round" stroke-linejoin="round" d="M 487 992 L 486 1013 L 488 1039 L 493 1070 L 495 1072 L 496 1029 L 494 1013 Z"/>
    </g>
    <g id="red-muscles">
      <path id="left-upper-back-red" fill="#EC2B2D" stroke="#FFFFFF" stroke-width="0.75" stroke-linecap="round" stroke-linejoin="round" d="M 319 455 L 325 486 L 335 521 L 337 536 L 347 580 L 357 605 L 373 633 L 377 646 L 379 660 L 386 653 L 393 641 L 398 621 L 400 605 L 408 586 L 412 580 L 426 567 L 432 563 L 443 559 L 444 555 L 442 543 L 435 522 L 408 475 L 398 453 L 380 462 L 359 466 L 338 463 Z"/>
      <path id="right-upper-back-red" fill="#EC2B2D" stroke="#FFFFFF" stroke-width="0.75" stroke-linecap="round" stroke-linejoin="round" d="M 586 455 L 565 464 L 545 466 L 528 463 L 508 453 L 502 467 L 484 496 L 467 530 L 461 557 L 480 567 L 488 574 L 498 587 L 504 601 L 508 625 L 512 639 L 519 652 L 526 660 L 528 658 L 528 651 L 531 638 L 553 596 L 559 580 L 573 512 L 575 509 L 581 480 L 583 476 L 584 464 L 587 457 Z"/>
      <path id="right-glute-red" fill="#EC2B2D" stroke="#FFFFFF" stroke-width="0.75" stroke-linecap="round" stroke-linejoin="round" d="M 500 690 L 496 692 L 485 704 L 459 738 L 456 751 L 457 807 L 465 827 L 474 836 L 488 844 L 502 848 L 525 849 L 544 845 L 563 836 L 577 820 L 582 810 L 586 796 L 587 783 L 584 765 L 571 736 L 554 717 L 535 703 L 516 694 Z"/>
      <path id="left-glute-red" fill="#EC2B2D" stroke="#FFFFFF" stroke-width="0.75" stroke-linecap="round" stroke-linejoin="round" d="M 407 691 L 401 691 L 385 696 L 365 707 L 348 720 L 339 730 L 330 745 L 321 768 L 319 779 L 319 792 L 323 808 L 329 820 L 336 830 L 343 836 L 368 847 L 392 849 L 416 845 L 433 835 L 443 823 L 446 815 L 450 788 L 449 745 L 441 729 L 418 701 Z"/>
    </g>
    <g id="separators-white"/>
  </g>
</svg>